<svg xmlns="http://www.w3.org/2000/svg" xmlns:xlink="http://www.w3.org/1999/xlink" viewBox="0 0 511.99 510.51"><defs><style>.cls-1{fill:url(#Degradado_sin_nombre_13);}.cls-2{fill:url(#Degradado_sin_nombre_19);}</style><linearGradient id="Degradado_sin_nombre_13" x1="255.96" y1="445.5" x2="255.96" y2="127.47" gradientTransform="matrix(1, 0, 0, -1, 0, 511.1)" gradientUnits="userSpaceOnUse"><stop offset="0" stop-color="#02c39a"/><stop offset="1" stop-color="#78dcc6"/></linearGradient><linearGradient id="Degradado_sin_nombre_19" x1="255.99" y1="511.1" x2="255.99" y2="0.59" gradientTransform="matrix(1, 0, 0, -1, 0, 511.1)" gradientUnits="userSpaceOnUse"><stop offset="0" stop-color="#028090"/><stop offset="1" stop-color="#02c39a"/></linearGradient></defs><g id="Capa_2" data-name="Capa 2"><g id="Capa_1-2" data-name="Capa 1"><path class="cls-1" d="M375.46,301.12,366,294.61c4.82-67.05-4-137.56-80-157l20-72H206l20,72c-76,19.49-84.79,90-80,157-45,22.12-35.34,86.87,16.19,89H349.76c43.25,1.36,61.88-59.09,25.7-82.49Z"/><path class="cls-2" d="M138.53,240.07v50.6C90,316.42,106.63,390.78,162.22,391.11H349.76a52.81,52.81,0,0,0,52.73-52.77c.28-20.21-11.86-37.71-29-47.67,5.37-66.13-6.79-135.82-78.28-158.22L315.9,58.11H196.17l20.65,74.34a112.93,112.93,0,0,0-78.29,107.62Zm77.37-167h80.27l-15.84,57h-48.6Zm11.13,72h58c74.06,19.42,77.14,89.66,73.5,153.43,14.4,8.71,29.9,21.18,29,39.84a37.76,37.76,0,0,1-37.72,37.73H162.21c-36.05,1.11-51.64-49.32-21.39-68.81l12.71-8.75c-3.64-63.81-.53-134,73.5-153.44Zm-25,95c.69-26.25,23.27-35.57,46.5-33v-28.5h15v28.5h39v15H235c-23.65.43-23.67,35.57,0,36h42c49.78,4.4,41.85,74.11-13.5,66v28.5h-15v-28.5h-39v-15H277a18,18,0,0,0,0-36C249.08,272.46,203.37,281.36,202,240.11Zm-187,13L0,253c.05-5.13.26-10.32.62-15.43l15,1C15.24,243.38,15.05,248.28,15,253.11Zm3.45,43.47a239,239,0,0,0,28.08,78.31l-13,7.44A253.91,253.91,0,0,1,3.67,299.11Zm-2-14.41L1.52,283.81c-.56-5.1-1-10.28-1.22-15.4l15-.74C15.52,272.5,15.91,277.38,16.43,282.17Zm.6-58.06-14.88-2C25,20.27,281.76-73.24,429,66.92V35.61h15v57.5h-57.5v-15H419C283.93-54.23,35.92,35.61,17,224.11Zm479.51,16.68,15-.91c.31,5.12.47,10.31.48,15.45H497C497,250.5,496.83,245.61,496.54,240.79ZM493,211.91l14.75-2.7c.92,5,1.7,10.18,2.32,15.28l-14.89,1.81C494.64,221.49,493.9,216.65,493,211.91Zm3.53,58,15,.87c-5.85,220-301.16,324-444.06,158v29.81h-15v-57.5H110v15H76.21C209.58,575.56,491,478.52,496.57,269.89ZM490,197.69a238.82,238.82,0,0,0-34.86-77.85l12.39-8.46a254,254,0,0,1,37,82.72Z"/></g></g></svg>