<svg xmlns="http://www.w3.org/2000/svg" width="137.993" height="96.267" viewBox="0 0 137.993 96.267">
  <g id="Grupo_44508" data-name="Grupo 44508" transform="translate(-236.427 -152.83)">
    <g id="Plants--inject-52" transform="translate(231.738 83.604) rotate(30)">
      <path id="Trazado_33842" data-name="Trazado 33842" d="M403.03,217.171c.55-.723,1.324-1.764,2.2-3.055.25-.372.512-.77.774-1.18a8.51,8.51,0,0,1-1.824-1.756,2.439,2.439,0,0,1-.3-2.115,1.227,1.227,0,0,1,1.714-.622c.9.512,1.058,2.369.867,3.271,0,.059-.233.723-.351,1.062.157-.25.317-.5.478-.757.233-.377.47-.779.7-1.172l.339-.626c.118-.212.207-.423.317-.643.148-.317.288-.656.423-.994a7.238,7.238,0,0,1-1.959-1.4,2.619,2.619,0,0,1-.614-2.061,1.219,1.219,0,0,1,1.6-.872c.965.372,1.409,2.179,1.358,3.1,0,.03-.034.224-.072.453.127-.334.254-.664.368-1.007.33-.965.639-1.959.952-2.962.063-.207.131-.423.2-.622a7.957,7.957,0,0,1-2.018-1.43,2.55,2.55,0,0,1-.618-2.06,1.227,1.227,0,0,1,1.6-.872c.965.372,1.4,2.179,1.354,3.1,0,.034-.038.262-.085.52.178-.537.364-1.075.563-1.6a21.5,21.5,0,0,1,1.18-2.632,8.369,8.369,0,0,1-2.082-1.468,2.53,2.53,0,0,1-.613-2.06,1.223,1.223,0,0,1,1.6-.872c.965.372,1.4,2.183,1.354,3.1,0,.068-.144.9-.2,1.2v-.03a16.077,16.077,0,0,1,1.608-2.335,20.141,20.141,0,0,1,1.718-1.862c.558-.554,1.1-1.02,1.587-1.434.267-.22.512-.423.745-.6h-.025s.571-1.113.618-1.176c.525-.762,1.98-1.921,2.962-1.625a1.219,1.219,0,0,1,.728,1.667,2.619,2.619,0,0,1-1.743,1.269,7.887,7.887,0,0,1-2.488-.106c-.237.195-.487.4-.762.639-.474.423-1.007.9-1.549,1.464-.148.148-.3.313-.444.474.3-.216.728-.508.77-.529.817-.423,2.644-.791,3.385-.072a1.219,1.219,0,0,1-.118,1.815,2.538,2.538,0,0,1-2.115.309,8.178,8.178,0,0,1-2.17-1.269c-.322.355-.647.728-.96,1.138a15.426,15.426,0,0,0-1.536,2.34c-.025.047-.047.1-.072.148.135-.131.914-.808.973-.846.762-.52,2.539-1.079,3.359-.444a1.227,1.227,0,0,1,.076,1.819,2.559,2.559,0,0,1-2.082.537,8.576,8.576,0,0,1-2.34-1.032,21.916,21.916,0,0,0-1.087,2.572c-.229.652-.423,1.32-.635,1.993.178-.169.9-.8.96-.846.762-.52,2.539-1.079,3.355-.423a1.223,1.223,0,0,1,.076,1.819,2.54,2.54,0,0,1-2.082.537,8.5,8.5,0,0,1-2.327-1.024c-.093.3-.182.609-.271.918-.292,1-.575,2.005-.888,2.991-.11.338-.229.669-.347,1,.275-.241.778-.677.825-.711.762-.52,2.539-1.075,3.355-.423a1.223,1.223,0,0,1,.08,1.815,2.561,2.561,0,0,1-2.082.542,7.961,7.961,0,0,1-2.255-.982c-.2.55-.423,1.1-.643,1.62-.106.224-.2.461-.313.668l-.326.635c-.237.423-.457.846-.69,1.214-.114.2-.228.381-.343.571.237-.288.622-.74.664-.774.673-.63,2.348-1.451,3.249-.948a1.227,1.227,0,0,1,.355,1.785,2.569,2.569,0,0,1-1.976.846,8.382,8.382,0,0,1-2.45-.656c-.283.47-.563.918-.846,1.337-.846,1.32-1.612,2.391-2.154,3.131s-.872,1.155-.872,1.155h0a.364.364,0,0,1-.558-.465S402.476,217.89,403.03,217.171Z" transform="translate(-254.24 -183.352)" fill="#02c39a"/>
      <path id="Trazado_33843" data-name="Trazado 33843" d="M429.9,195.5a8.763,8.763,0,0,1-1.642-1.98,2.532,2.532,0,0,1-.047-2.149,1.223,1.223,0,0,1,1.769-.423c.846.613.783,2.475.491,3.351C430.451,194.394,429.918,195.528,429.9,195.5Z" transform="translate(-269.204 -184.327)" fill="#02c39a"/>
      <path id="Trazado_33844" data-name="Trazado 33844" d="M384.668,226.035c-.245-.618-.605-1.5-1.092-2.539-.135-.3-.288-.618-.449-.939a6.168,6.168,0,0,1-1.8.487,1.87,1.87,0,0,1-1.451-.622.9.9,0,0,1,.258-1.312c.66-.372,1.891.228,2.39.69.03.03.368.423.533.626-.1-.195-.19-.389-.3-.588-.148-.292-.313-.592-.474-.888l-.267-.448c-.085-.157-.19-.3-.284-.444-.144-.216-.3-.423-.465-.647a5.62,5.62,0,0,1-1.62.707,1.874,1.874,0,0,1-1.532-.393.9.9,0,0,1,.055-1.337c.6-.465,1.908-.059,2.467.322a2.023,2.023,0,0,1,.258.216c-.161-.2-.322-.423-.491-.613-.487-.575-.994-1.142-1.506-1.718l-.317-.36a6.007,6.007,0,0,1-1.663.732,1.9,1.9,0,0,1-1.532-.393.9.9,0,0,1,.055-1.337c.6-.465,1.9-.063,2.467.317l.3.254c-.271-.317-.537-.635-.8-.96a15.475,15.475,0,0,1-1.21-1.739,6.346,6.346,0,0,1-1.714.757,1.887,1.887,0,0,1-1.532-.393.9.9,0,0,1,.055-1.337c.6-.465,1.908-.059,2.471.322.038.025.512.423.673.58v-.021a11.745,11.745,0,0,1-.846-1.9,16.157,16.157,0,0,1-.525-1.785c-.135-.559-.224-1.083-.3-1.544-.038-.25-.072-.478-.1-.694h0s-.487-.778-.508-.846c-.283-.618-.461-1.976.1-2.484a.9.9,0,0,1,1.324.169,1.879,1.879,0,0,1,.127,1.574,5.922,5.922,0,0,1-1.007,1.527c.034.224.072.461.114.724.089.457.186.973.334,1.527.038.148.089.309.131.461,0-.275-.042-.652-.038-.69.034-.677.5-1.963,1.235-2.158a.9.9,0,0,1,1.1.766,1.87,1.87,0,0,1-.609,1.455,6.042,6.042,0,0,1-1.608.893c.1.338.216.685.351,1.037a11.58,11.58,0,0,0,.893,1.853l.068.1c-.034-.135-.161-.88-.165-.935-.038-.677.284-2.005.99-2.281a.9.9,0,0,1,1.176.639,1.87,1.87,0,0,1-.448,1.515,6.347,6.347,0,0,1-1.536,1.083,15.178,15.178,0,0,0,1.21,1.659c.322.389.664.774,1.015,1.155-.042-.173-.161-.872-.165-.922-.038-.677.283-2.005.994-2.281a.9.9,0,0,1,1.172.639,1.87,1.87,0,0,1-.448,1.515,6.131,6.131,0,0,1-1.527,1.079l.419.563c.52.558,1.045,1.121,1.549,1.692.173.195.334.4.5.6-.051-.267-.131-.749-.135-.791-.038-.677.284-2.005.994-2.281a.9.9,0,0,1,1.172.639,1.883,1.883,0,0,1-.444,1.515,5.958,5.958,0,0,1-1.472,1.049c.271.334.533.677.779,1.02.1.152.212.3.3.453l.279.444c.178.309.343.6.5.893.085.148.157.288.233.423-.093-.262-.228-.677-.237-.715-.144-.664-.025-2.027.635-2.407a.9.9,0,0,1,1.269.453,1.878,1.878,0,0,1-.212,1.565,6.1,6.1,0,0,1-1.341,1.295c.186.355.364.7.525,1.032.512,1.037.9,1.921,1.159,2.539s.4.986.4.986h0a.271.271,0,0,1-.165.338.267.267,0,0,1-.338-.165S384.893,226.657,384.668,226.035Z" transform="translate(-237.3 -191.721)" fill="#02c39a"/>
      <path id="Trazado_33845" data-name="Trazado 33845" d="M373.332,216.218a6.312,6.312,0,0,1-1.866.283,1.853,1.853,0,0,1-1.375-.783.9.9,0,0,1,.423-1.269c.7-.292,1.853.444,2.3.96C372.833,215.452,373.344,216.214,373.332,216.218Z" transform="translate(-235.732 -197.973)" fill="#02c39a"/>
      <path id="Trazado_33846" data-name="Trazado 33846" d="M394.8,209.193c.114-.9.262-2.192.368-3.744.03-.448.055-.922.076-1.413a8.332,8.332,0,0,1-2.462-.6,2.468,2.468,0,0,1-1.324-1.692,1.223,1.223,0,0,1,1.168-1.4c1.032,0,2.116,1.51,2.395,2.386.021.059.165.745.233,1.1,0-.292.021-.588.03-.9v-1.362c0-.237,0-.474-.021-.715s-.034-.474-.051-.711c-.03-.355-.08-.715-.127-1.075a8.168,8.168,0,0,1-2.4-.224,2.579,2.579,0,0,1-1.565-1.472,1.223,1.223,0,0,1,.939-1.557c1.02-.165,2.314,1.176,2.733,2,0,.025.085.207.165.423-.055-.351-.114-.7-.186-1.058q-.3-1.5-.668-3.034l-.14-.639a8.556,8.556,0,0,1-2.462-.22,2.544,2.544,0,0,1-1.57-1.472,1.223,1.223,0,0,1,.944-1.557c1.02-.165,2.31,1.176,2.729,2,0,.03.1.245.19.491-.118-.554-.228-1.108-.322-1.663a21.775,21.775,0,0,1-.3-2.873,8.724,8.724,0,0,1-2.539-.216,2.554,2.554,0,0,1-1.57-1.472,1.223,1.223,0,0,1,.944-1.557c1.02-.165,2.314,1.176,2.733,2,.03.059.326.846.423,1.138v-.034a16.025,16.025,0,0,1,.216-2.826,21.461,21.461,0,0,1,.546-2.471q.311-1.136.652-2.039c.118-.322.233-.618.343-.893h-.021c-.021,0-.068-1.248-.059-1.324.068-.922.745-2.657,1.747-2.9a1.227,1.227,0,0,1,1.472,1.075,2.568,2.568,0,0,1-.88,1.963,8.244,8.244,0,0,1-2.2,1.155c-.106.288-.216.6-.334.935-.2.605-.423,1.269-.605,2.044-.051.2-.1.423-.148.635a8.22,8.22,0,0,1,.423-.846c.487-.783,1.887-2.014,2.89-1.764a1.227,1.227,0,0,1,.808,1.629,2.547,2.547,0,0,1-1.692,1.337,8.2,8.2,0,0,1-2.5,0c-.1.47-.19.956-.258,1.468a15.449,15.449,0,0,0-.148,2.8v.161c.047-.182.385-1.155.423-1.223.4-.846,1.654-2.2,2.678-2.069a1.223,1.223,0,0,1,.982,1.532,2.562,2.562,0,0,1-1.527,1.515,8.687,8.687,0,0,1-2.539.283,21.225,21.225,0,0,0,.355,2.771c.127.677.288,1.358.453,2.039.068-.233.381-1.138.423-1.2.4-.846,1.654-2.209,2.678-2.073a1.227,1.227,0,0,1,.982,1.532,2.551,2.551,0,0,1-1.527,1.515,8.516,8.516,0,0,1-2.539.283c.076.313.148.622.228.931.254,1.011.512,2.022.736,3.034.076.347.14.694.207,1.041.114-.347.33-.977.355-1.028.4-.846,1.654-2.209,2.678-2.073a1.227,1.227,0,0,1,.982,1.532,2.562,2.562,0,0,1-1.527,1.515,8.049,8.049,0,0,1-2.441.288c.106.575.195,1.151.258,1.722.021.25.059.5.068.736l.038.715v2.061c.059-.368.169-.952.182-1.007.267-.88,1.3-2.433,2.336-2.45a1.219,1.219,0,0,1,1.2,1.362,2.581,2.581,0,0,1-1.269,1.73,9.083,9.083,0,0,1-2.441.664c0,.542-.025,1.075-.051,1.57-.072,1.574-.19,2.877-.288,3.808s-.173,1.439-.173,1.439h0a.364.364,0,1,1-.715-.118S394.681,210.082,394.8,209.193Z" transform="translate(-246.712 -175.598)" fill="#02c39a"/>
      <path id="Trazado_33847" data-name="Trazado 33847" d="M395.3,189.144a8.835,8.835,0,0,1-2.416-.889,2.565,2.565,0,0,1-1.121-1.832,1.223,1.223,0,0,1,1.32-1.269c1.024.11,1.917,1.743,2.115,2.649C395.2,187.9,395.313,189.149,395.3,189.144Z" transform="translate(-248.299 -181.109)" fill="#02c39a"/>
      <path id="Trazado_33848" data-name="Trazado 33848" d="M403.03,217.171c.55-.723,1.324-1.764,2.2-3.055.25-.372.512-.77.774-1.18a8.51,8.51,0,0,1-1.824-1.756,2.439,2.439,0,0,1-.3-2.115,1.227,1.227,0,0,1,1.714-.622c.9.512,1.058,2.369.867,3.271,0,.059-.233.723-.351,1.062.157-.25.317-.5.478-.757.233-.377.47-.779.7-1.172l.339-.626c.118-.212.207-.423.317-.643.148-.317.288-.656.423-.994a7.238,7.238,0,0,1-1.959-1.4,2.619,2.619,0,0,1-.614-2.061,1.219,1.219,0,0,1,1.6-.872c.965.372,1.409,2.179,1.358,3.1,0,.03-.034.224-.072.453.127-.334.254-.664.368-1.007.33-.965.639-1.959.952-2.962.063-.207.131-.423.2-.622a7.957,7.957,0,0,1-2.018-1.43,2.55,2.55,0,0,1-.618-2.06,1.227,1.227,0,0,1,1.6-.872c.965.372,1.4,2.179,1.354,3.1,0,.034-.038.262-.085.52.178-.537.364-1.075.563-1.6a21.5,21.5,0,0,1,1.18-2.632,8.369,8.369,0,0,1-2.082-1.468,2.53,2.53,0,0,1-.613-2.06,1.223,1.223,0,0,1,1.6-.872c.965.372,1.4,2.183,1.354,3.1,0,.068-.144.9-.2,1.2v-.03a16.077,16.077,0,0,1,1.608-2.335,20.141,20.141,0,0,1,1.718-1.862c.558-.554,1.1-1.02,1.587-1.434.267-.22.512-.423.745-.6h-.025s.571-1.113.618-1.176c.525-.762,1.98-1.921,2.962-1.625a1.219,1.219,0,0,1,.728,1.667,2.619,2.619,0,0,1-1.743,1.269,7.887,7.887,0,0,1-2.488-.106c-.237.195-.487.4-.762.639-.474.423-1.007.9-1.549,1.464-.148.148-.3.313-.444.474.3-.216.728-.508.77-.529.817-.423,2.644-.791,3.385-.072a1.219,1.219,0,0,1-.118,1.815,2.538,2.538,0,0,1-2.115.309,8.178,8.178,0,0,1-2.17-1.269c-.322.355-.647.728-.96,1.138a15.426,15.426,0,0,0-1.536,2.34c-.025.047-.047.1-.072.148.135-.131.914-.808.973-.846.762-.52,2.539-1.079,3.359-.444a1.227,1.227,0,0,1,.076,1.819,2.559,2.559,0,0,1-2.082.537,8.576,8.576,0,0,1-2.34-1.032,21.916,21.916,0,0,0-1.087,2.572c-.229.652-.423,1.32-.635,1.993.178-.169.9-.8.96-.846.762-.52,2.539-1.079,3.355-.423a1.223,1.223,0,0,1,.076,1.819,2.54,2.54,0,0,1-2.082.537,8.5,8.5,0,0,1-2.327-1.024c-.093.3-.182.609-.271.918-.292,1-.575,2.005-.888,2.991-.11.338-.229.669-.347,1,.275-.241.778-.677.825-.711.762-.52,2.539-1.075,3.355-.423a1.223,1.223,0,0,1,.08,1.815,2.561,2.561,0,0,1-2.082.542,7.961,7.961,0,0,1-2.255-.982c-.2.55-.423,1.1-.643,1.62-.106.224-.2.461-.313.668l-.326.635c-.237.423-.457.846-.69,1.214-.114.2-.228.381-.343.571.237-.288.622-.74.664-.774.673-.63,2.348-1.451,3.249-.948a1.227,1.227,0,0,1,.355,1.785,2.569,2.569,0,0,1-1.976.846,8.382,8.382,0,0,1-2.45-.656c-.283.47-.563.918-.846,1.337-.846,1.32-1.612,2.391-2.154,3.131s-.872,1.155-.872,1.155h0a.364.364,0,0,1-.558-.465S402.476,217.89,403.03,217.171Z" transform="translate(-254.24 -183.352)" fill="#02c39a"/>
      <path id="Trazado_33849" data-name="Trazado 33849" d="M429.9,195.5a8.763,8.763,0,0,1-1.642-1.98,2.532,2.532,0,0,1-.047-2.149,1.223,1.223,0,0,1,1.769-.423c.846.613.783,2.475.491,3.351C430.451,194.394,429.918,195.528,429.9,195.5Z" transform="translate(-269.204 -184.327)" fill="#02c39a"/>
      <path id="Trazado_33850" data-name="Trazado 33850" d="M384.668,226.035c-.245-.618-.605-1.5-1.092-2.539-.135-.3-.288-.618-.449-.939a6.168,6.168,0,0,1-1.8.487,1.87,1.87,0,0,1-1.451-.622.9.9,0,0,1,.258-1.312c.66-.372,1.891.228,2.39.69.03.03.368.423.533.626-.1-.195-.19-.389-.3-.588-.148-.292-.313-.592-.474-.888l-.267-.448c-.085-.157-.19-.3-.284-.444-.144-.216-.3-.423-.465-.647a5.62,5.62,0,0,1-1.62.707,1.874,1.874,0,0,1-1.532-.393.9.9,0,0,1,.055-1.337c.6-.465,1.908-.059,2.467.322a2.023,2.023,0,0,1,.258.216c-.161-.2-.322-.423-.491-.613-.487-.575-.994-1.142-1.506-1.718l-.317-.36a6.007,6.007,0,0,1-1.663.732,1.9,1.9,0,0,1-1.532-.393.9.9,0,0,1,.055-1.337c.6-.465,1.9-.063,2.467.317l.3.254c-.271-.317-.537-.635-.8-.96a15.475,15.475,0,0,1-1.21-1.739,6.346,6.346,0,0,1-1.714.757,1.887,1.887,0,0,1-1.532-.393.9.9,0,0,1,.055-1.337c.6-.465,1.908-.059,2.471.322.038.025.512.423.673.58v-.021a11.745,11.745,0,0,1-.846-1.9,16.157,16.157,0,0,1-.525-1.785c-.135-.559-.224-1.083-.3-1.544-.038-.25-.072-.478-.1-.694h0s-.487-.778-.508-.846c-.283-.618-.461-1.976.1-2.484a.9.9,0,0,1,1.324.169,1.879,1.879,0,0,1,.127,1.574,5.922,5.922,0,0,1-1.007,1.527c.034.224.072.461.114.724.089.457.186.973.334,1.527.038.148.089.309.131.461,0-.275-.042-.652-.038-.69.034-.677.5-1.963,1.235-2.158a.9.9,0,0,1,1.1.766,1.87,1.87,0,0,1-.609,1.455,6.042,6.042,0,0,1-1.608.893c.1.338.216.685.351,1.037a11.58,11.58,0,0,0,.893,1.853l.068.1c-.034-.135-.161-.88-.165-.935-.038-.677.284-2.005.99-2.281a.9.9,0,0,1,1.176.639,1.87,1.87,0,0,1-.448,1.515,6.347,6.347,0,0,1-1.536,1.083,15.178,15.178,0,0,0,1.21,1.659c.322.389.664.774,1.015,1.155-.042-.173-.161-.872-.165-.922-.038-.677.283-2.005.994-2.281a.9.9,0,0,1,1.172.639,1.87,1.87,0,0,1-.448,1.515,6.131,6.131,0,0,1-1.527,1.079l.419.563c.52.558,1.045,1.121,1.549,1.692.173.195.334.4.5.6-.051-.267-.131-.749-.135-.791-.038-.677.284-2.005.994-2.281a.9.9,0,0,1,1.172.639,1.883,1.883,0,0,1-.444,1.515,5.958,5.958,0,0,1-1.472,1.049c.271.334.533.677.779,1.02.1.152.212.3.3.453l.279.444c.178.309.343.6.5.893.085.148.157.288.233.423-.093-.262-.228-.677-.237-.715-.144-.664-.025-2.027.635-2.407a.9.9,0,0,1,1.269.453,1.878,1.878,0,0,1-.212,1.565,6.1,6.1,0,0,1-1.341,1.295c.186.355.364.7.525,1.032.512,1.037.9,1.921,1.159,2.539s.4.986.4.986h0a.271.271,0,0,1-.165.338.267.267,0,0,1-.338-.165S384.893,226.657,384.668,226.035Z" transform="translate(-237.3 -191.721)" fill="#02c39a"/>
      <path id="Trazado_33851" data-name="Trazado 33851" d="M373.332,216.218a6.312,6.312,0,0,1-1.866.283,1.853,1.853,0,0,1-1.375-.783.9.9,0,0,1,.423-1.269c.7-.292,1.853.444,2.3.96C372.833,215.452,373.344,216.214,373.332,216.218Z" transform="translate(-235.732 -197.973)" fill="#02c39a"/>
      <path id="Trazado_33852" data-name="Trazado 33852" d="M394.8,209.193c.114-.9.262-2.192.368-3.744.03-.448.055-.922.076-1.413a8.332,8.332,0,0,1-2.462-.6,2.468,2.468,0,0,1-1.324-1.692,1.223,1.223,0,0,1,1.168-1.4c1.032,0,2.116,1.51,2.395,2.386.021.059.165.745.233,1.1,0-.292.021-.588.03-.9v-1.362c0-.237,0-.474-.021-.715s-.034-.474-.051-.711c-.03-.355-.08-.715-.127-1.075a8.168,8.168,0,0,1-2.4-.224,2.579,2.579,0,0,1-1.565-1.472,1.223,1.223,0,0,1,.939-1.557c1.02-.165,2.314,1.176,2.733,2,0,.025.085.207.165.423-.055-.351-.114-.7-.186-1.058q-.3-1.5-.668-3.034l-.14-.639a8.556,8.556,0,0,1-2.462-.22,2.544,2.544,0,0,1-1.57-1.472,1.223,1.223,0,0,1,.944-1.557c1.02-.165,2.31,1.176,2.729,2,0,.03.1.245.19.491-.118-.554-.228-1.108-.322-1.663a21.775,21.775,0,0,1-.3-2.873,8.724,8.724,0,0,1-2.539-.216,2.554,2.554,0,0,1-1.57-1.472,1.223,1.223,0,0,1,.944-1.557c1.02-.165,2.314,1.176,2.733,2,.03.059.326.846.423,1.138v-.034a16.025,16.025,0,0,1,.216-2.826,21.461,21.461,0,0,1,.546-2.471q.311-1.136.652-2.039c.118-.322.233-.618.343-.893h-.021c-.021,0-.068-1.248-.059-1.324.068-.922.745-2.657,1.747-2.9a1.227,1.227,0,0,1,1.472,1.075,2.568,2.568,0,0,1-.88,1.963,8.244,8.244,0,0,1-2.2,1.155c-.106.288-.216.6-.334.935-.2.605-.423,1.269-.605,2.044-.051.2-.1.423-.148.635a8.22,8.22,0,0,1,.423-.846c.487-.783,1.887-2.014,2.89-1.764a1.227,1.227,0,0,1,.808,1.629,2.547,2.547,0,0,1-1.692,1.337,8.2,8.2,0,0,1-2.5,0c-.1.47-.19.956-.258,1.468a15.449,15.449,0,0,0-.148,2.8v.161c.047-.182.385-1.155.423-1.223.4-.846,1.654-2.2,2.678-2.069a1.223,1.223,0,0,1,.982,1.532,2.562,2.562,0,0,1-1.527,1.515,8.687,8.687,0,0,1-2.539.283,21.225,21.225,0,0,0,.355,2.771c.127.677.288,1.358.453,2.039.068-.233.381-1.138.423-1.2.4-.846,1.654-2.209,2.678-2.073a1.227,1.227,0,0,1,.982,1.532,2.551,2.551,0,0,1-1.527,1.515,8.516,8.516,0,0,1-2.539.283c.076.313.148.622.228.931.254,1.011.512,2.022.736,3.034.076.347.14.694.207,1.041.114-.347.33-.977.355-1.028.4-.846,1.654-2.209,2.678-2.073a1.227,1.227,0,0,1,.982,1.532,2.562,2.562,0,0,1-1.527,1.515,8.049,8.049,0,0,1-2.441.288c.106.575.195,1.151.258,1.722.021.25.059.5.068.736l.038.715v2.061c.059-.368.169-.952.182-1.007.267-.88,1.3-2.433,2.336-2.45a1.219,1.219,0,0,1,1.2,1.362,2.581,2.581,0,0,1-1.269,1.73,9.083,9.083,0,0,1-2.441.664c0,.542-.025,1.075-.051,1.57-.072,1.574-.19,2.877-.288,3.808s-.173,1.439-.173,1.439h0a.364.364,0,1,1-.715-.118S394.681,210.082,394.8,209.193Z" transform="translate(-246.712 -175.598)" fill="#02c39a"/>
      <path id="Trazado_33853" data-name="Trazado 33853" d="M395.3,189.144a8.835,8.835,0,0,1-2.416-.889,2.565,2.565,0,0,1-1.121-1.832,1.223,1.223,0,0,1,1.32-1.269c1.024.11,1.917,1.743,2.115,2.649C395.2,187.9,395.313,189.149,395.3,189.144Z" transform="translate(-248.299 -181.109)" fill="#02c39a"/>
      <g id="Grupo_16193" data-name="Grupo 16193" transform="translate(134.242)">
        <path id="Trazado_33854" data-name="Trazado 33854" d="M403.03,217.171c.55-.723,1.324-1.764,2.2-3.055.25-.372.512-.77.774-1.18a8.51,8.51,0,0,1-1.824-1.756,2.439,2.439,0,0,1-.3-2.115,1.227,1.227,0,0,1,1.714-.622c.9.512,1.058,2.369.867,3.271,0,.059-.233.723-.351,1.062.157-.25.317-.5.478-.757.233-.377.47-.779.7-1.172l.339-.626c.118-.212.207-.423.317-.643.148-.317.288-.656.423-.994a7.238,7.238,0,0,1-1.959-1.4,2.619,2.619,0,0,1-.614-2.061,1.219,1.219,0,0,1,1.6-.872c.965.372,1.409,2.179,1.358,3.1,0,.03-.034.224-.072.453.127-.334.254-.664.368-1.007.33-.965.639-1.959.952-2.962.063-.207.131-.423.2-.622a7.957,7.957,0,0,1-2.018-1.43,2.55,2.55,0,0,1-.618-2.06,1.227,1.227,0,0,1,1.6-.872c.965.372,1.4,2.179,1.354,3.1,0,.034-.038.262-.085.52.178-.537.364-1.075.563-1.6a21.5,21.5,0,0,1,1.18-2.632,8.369,8.369,0,0,1-2.082-1.468,2.53,2.53,0,0,1-.613-2.06,1.223,1.223,0,0,1,1.6-.872c.965.372,1.4,2.183,1.354,3.1,0,.068-.144.9-.2,1.2v-.03a16.077,16.077,0,0,1,1.608-2.335,20.141,20.141,0,0,1,1.718-1.862c.558-.554,1.1-1.02,1.587-1.434.267-.22.512-.423.745-.6h-.025s.571-1.113.618-1.176c.525-.762,1.98-1.921,2.962-1.625a1.219,1.219,0,0,1,.728,1.667,2.619,2.619,0,0,1-1.743,1.269,7.887,7.887,0,0,1-2.488-.106c-.237.195-.487.4-.762.639-.474.423-1.007.9-1.549,1.464-.148.148-.3.313-.444.474.3-.216.728-.508.77-.529.817-.423,2.644-.791,3.385-.072a1.219,1.219,0,0,1-.118,1.815,2.538,2.538,0,0,1-2.115.309,8.178,8.178,0,0,1-2.17-1.269c-.322.355-.647.728-.96,1.138a15.426,15.426,0,0,0-1.536,2.34c-.025.047-.047.1-.072.148.135-.131.914-.808.973-.846.762-.52,2.539-1.079,3.359-.444a1.227,1.227,0,0,1,.076,1.819,2.559,2.559,0,0,1-2.082.537,8.576,8.576,0,0,1-2.34-1.032,21.916,21.916,0,0,0-1.087,2.572c-.229.652-.423,1.32-.635,1.993.178-.169.9-.8.96-.846.762-.52,2.539-1.079,3.355-.423a1.223,1.223,0,0,1,.076,1.819,2.54,2.54,0,0,1-2.082.537,8.5,8.5,0,0,1-2.327-1.024c-.093.3-.182.609-.271.918-.292,1-.575,2.005-.888,2.991-.11.338-.229.669-.347,1,.275-.241.778-.677.825-.711.762-.52,2.539-1.075,3.355-.423a1.223,1.223,0,0,1,.08,1.815,2.561,2.561,0,0,1-2.082.542,7.961,7.961,0,0,1-2.255-.982c-.2.55-.423,1.1-.643,1.62-.106.224-.2.461-.313.668l-.326.635c-.237.423-.457.846-.69,1.214-.114.2-.228.381-.343.571.237-.288.622-.74.664-.774.673-.63,2.348-1.451,3.249-.948a1.227,1.227,0,0,1,.355,1.785,2.569,2.569,0,0,1-1.976.846,8.382,8.382,0,0,1-2.45-.656c-.283.47-.563.918-.846,1.337-.846,1.32-1.612,2.391-2.154,3.131s-.872,1.155-.872,1.155h0a.364.364,0,0,1-.558-.465S402.476,217.89,403.03,217.171Z" transform="translate(-388.481 -183.352)" fill="#ffe038"/>
        <path id="Trazado_33855" data-name="Trazado 33855" d="M429.9,195.5a8.763,8.763,0,0,1-1.642-1.98,2.532,2.532,0,0,1-.047-2.149,1.223,1.223,0,0,1,1.769-.423c.846.613.783,2.475.491,3.351C430.451,194.394,429.918,195.528,429.9,195.5Z" transform="translate(-403.446 -184.327)" fill="#ffe038"/>
        <path id="Trazado_33856" data-name="Trazado 33856" d="M384.668,226.035c-.245-.618-.605-1.5-1.092-2.539-.135-.3-.288-.618-.449-.939a6.168,6.168,0,0,1-1.8.487,1.87,1.87,0,0,1-1.451-.622.9.9,0,0,1,.258-1.312c.66-.372,1.891.228,2.39.69.03.03.368.423.533.626-.1-.195-.19-.389-.3-.588-.148-.292-.313-.592-.474-.888l-.267-.448c-.085-.157-.19-.3-.284-.444-.144-.216-.3-.423-.465-.647a5.62,5.62,0,0,1-1.62.707,1.874,1.874,0,0,1-1.532-.393.9.9,0,0,1,.055-1.337c.6-.465,1.908-.059,2.467.322a2.023,2.023,0,0,1,.258.216c-.161-.2-.322-.423-.491-.613-.487-.575-.994-1.142-1.506-1.718l-.317-.36a6.007,6.007,0,0,1-1.663.732,1.9,1.9,0,0,1-1.532-.393.9.9,0,0,1,.055-1.337c.6-.465,1.9-.063,2.467.317l.3.254c-.271-.317-.537-.635-.8-.96a15.475,15.475,0,0,1-1.21-1.739,6.346,6.346,0,0,1-1.714.757,1.887,1.887,0,0,1-1.532-.393.9.9,0,0,1,.055-1.337c.6-.465,1.908-.059,2.471.322.038.025.512.423.673.58v-.021a11.745,11.745,0,0,1-.846-1.9,16.157,16.157,0,0,1-.525-1.785c-.135-.559-.224-1.083-.3-1.544-.038-.25-.072-.478-.1-.694h0s-.487-.778-.508-.846c-.283-.618-.461-1.976.1-2.484a.9.9,0,0,1,1.324.169,1.879,1.879,0,0,1,.127,1.574,5.922,5.922,0,0,1-1.007,1.527c.034.224.072.461.114.724.089.457.186.973.334,1.527.038.148.089.309.131.461,0-.275-.042-.652-.038-.69.034-.677.5-1.963,1.235-2.158a.9.9,0,0,1,1.1.766,1.87,1.87,0,0,1-.609,1.455,6.042,6.042,0,0,1-1.608.893c.1.338.216.685.351,1.037a11.58,11.58,0,0,0,.893,1.853l.068.1c-.034-.135-.161-.88-.165-.935-.038-.677.284-2.005.99-2.281a.9.9,0,0,1,1.176.639,1.87,1.87,0,0,1-.448,1.515,6.347,6.347,0,0,1-1.536,1.083,15.178,15.178,0,0,0,1.21,1.659c.322.389.664.774,1.015,1.155-.042-.173-.161-.872-.165-.922-.038-.677.283-2.005.994-2.281a.9.9,0,0,1,1.172.639,1.87,1.87,0,0,1-.448,1.515,6.131,6.131,0,0,1-1.527,1.079l.419.563c.52.558,1.045,1.121,1.549,1.692.173.195.334.4.5.6-.051-.267-.131-.749-.135-.791-.038-.677.284-2.005.994-2.281a.9.9,0,0,1,1.172.639,1.883,1.883,0,0,1-.444,1.515,5.958,5.958,0,0,1-1.472,1.049c.271.334.533.677.779,1.02.1.152.212.3.3.453l.279.444c.178.309.343.6.5.893.085.148.157.288.233.423-.093-.262-.228-.677-.237-.715-.144-.664-.025-2.027.635-2.407a.9.9,0,0,1,1.269.453,1.878,1.878,0,0,1-.212,1.565,6.1,6.1,0,0,1-1.341,1.295c.186.355.364.7.525,1.032.512,1.037.9,1.921,1.159,2.539s.4.986.4.986h0a.271.271,0,0,1-.165.338.267.267,0,0,1-.338-.165S384.893,226.657,384.668,226.035Z" transform="translate(-371.541 -191.721)" fill="#ffe038"/>
        <path id="Trazado_33857" data-name="Trazado 33857" d="M373.332,216.218a6.312,6.312,0,0,1-1.866.283,1.853,1.853,0,0,1-1.375-.783.9.9,0,0,1,.423-1.269c.7-.292,1.853.444,2.3.96C372.833,215.452,373.344,216.214,373.332,216.218Z" transform="translate(-369.974 -197.973)" fill="#ffe038"/>
        <path id="Trazado_33858" data-name="Trazado 33858" d="M394.8,209.193c.114-.9.262-2.192.368-3.744.03-.448.055-.922.076-1.413a8.332,8.332,0,0,1-2.462-.6,2.468,2.468,0,0,1-1.324-1.692,1.223,1.223,0,0,1,1.168-1.4c1.032,0,2.116,1.51,2.395,2.386.021.059.165.745.233,1.1,0-.292.021-.588.03-.9v-1.362c0-.237,0-.474-.021-.715s-.034-.474-.051-.711c-.03-.355-.08-.715-.127-1.075a8.168,8.168,0,0,1-2.4-.224,2.579,2.579,0,0,1-1.565-1.472,1.223,1.223,0,0,1,.939-1.557c1.02-.165,2.314,1.176,2.733,2,0,.025.085.207.165.423-.055-.351-.114-.7-.186-1.058q-.3-1.5-.668-3.034l-.14-.639a8.556,8.556,0,0,1-2.462-.22,2.544,2.544,0,0,1-1.57-1.472,1.223,1.223,0,0,1,.944-1.557c1.02-.165,2.31,1.176,2.729,2,0,.03.1.245.19.491-.118-.554-.228-1.108-.322-1.663a21.775,21.775,0,0,1-.3-2.873,8.724,8.724,0,0,1-2.539-.216,2.554,2.554,0,0,1-1.57-1.472,1.223,1.223,0,0,1,.944-1.557c1.02-.165,2.314,1.176,2.733,2,.03.059.326.846.423,1.138v-.034a16.025,16.025,0,0,1,.216-2.826,21.461,21.461,0,0,1,.546-2.471q.311-1.136.652-2.039c.118-.322.233-.618.343-.893h-.021c-.021,0-.068-1.248-.059-1.324.068-.922.745-2.657,1.747-2.9a1.227,1.227,0,0,1,1.472,1.075,2.568,2.568,0,0,1-.88,1.963,8.244,8.244,0,0,1-2.2,1.155c-.106.288-.216.6-.334.935-.2.605-.423,1.269-.605,2.044-.051.2-.1.423-.148.635a8.22,8.22,0,0,1,.423-.846c.487-.783,1.887-2.014,2.89-1.764a1.227,1.227,0,0,1,.808,1.629,2.547,2.547,0,0,1-1.692,1.337,8.2,8.2,0,0,1-2.5,0c-.1.47-.19.956-.258,1.468a15.449,15.449,0,0,0-.148,2.8v.161c.047-.182.385-1.155.423-1.223.4-.846,1.654-2.2,2.678-2.069a1.223,1.223,0,0,1,.982,1.532,2.562,2.562,0,0,1-1.527,1.515,8.687,8.687,0,0,1-2.539.283,21.225,21.225,0,0,0,.355,2.771c.127.677.288,1.358.453,2.039.068-.233.381-1.138.423-1.2.4-.846,1.654-2.209,2.678-2.073a1.227,1.227,0,0,1,.982,1.532,2.551,2.551,0,0,1-1.527,1.515,8.516,8.516,0,0,1-2.539.283c.076.313.148.622.228.931.254,1.011.512,2.022.736,3.034.076.347.14.694.207,1.041.114-.347.33-.977.355-1.028.4-.846,1.654-2.209,2.678-2.073a1.227,1.227,0,0,1,.982,1.532,2.562,2.562,0,0,1-1.527,1.515,8.049,8.049,0,0,1-2.441.288c.106.575.195,1.151.258,1.722.021.25.059.5.068.736l.038.715v2.061c.059-.368.169-.952.182-1.007.267-.88,1.3-2.433,2.336-2.45a1.219,1.219,0,0,1,1.2,1.362,2.581,2.581,0,0,1-1.269,1.73,9.083,9.083,0,0,1-2.441.664c0,.542-.025,1.075-.051,1.57-.072,1.574-.19,2.877-.288,3.808s-.173,1.439-.173,1.439h0a.364.364,0,1,1-.715-.118S394.681,210.082,394.8,209.193Z" transform="translate(-380.953 -175.598)" fill="#ffe038"/>
        <path id="Trazado_33859" data-name="Trazado 33859" d="M395.3,189.144a8.835,8.835,0,0,1-2.416-.889,2.565,2.565,0,0,1-1.121-1.832,1.223,1.223,0,0,1,1.32-1.269c1.024.11,1.917,1.743,2.115,2.649C395.2,187.9,395.313,189.149,395.3,189.144Z" transform="translate(-382.541 -181.109)" fill="#ffe038"/>
        <path id="Trazado_33860" data-name="Trazado 33860" d="M403.03,217.171c.55-.723,1.324-1.764,2.2-3.055.25-.372.512-.77.774-1.18a8.51,8.51,0,0,1-1.824-1.756,2.439,2.439,0,0,1-.3-2.115,1.227,1.227,0,0,1,1.714-.622c.9.512,1.058,2.369.867,3.271,0,.059-.233.723-.351,1.062.157-.25.317-.5.478-.757.233-.377.47-.779.7-1.172l.339-.626c.118-.212.207-.423.317-.643.148-.317.288-.656.423-.994a7.238,7.238,0,0,1-1.959-1.4,2.619,2.619,0,0,1-.614-2.061,1.219,1.219,0,0,1,1.6-.872c.965.372,1.409,2.179,1.358,3.1,0,.03-.034.224-.072.453.127-.334.254-.664.368-1.007.33-.965.639-1.959.952-2.962.063-.207.131-.423.2-.622a7.957,7.957,0,0,1-2.018-1.43,2.55,2.55,0,0,1-.618-2.06,1.227,1.227,0,0,1,1.6-.872c.965.372,1.4,2.179,1.354,3.1,0,.034-.038.262-.085.52.178-.537.364-1.075.563-1.6a21.5,21.5,0,0,1,1.18-2.632,8.369,8.369,0,0,1-2.082-1.468,2.53,2.53,0,0,1-.613-2.06,1.223,1.223,0,0,1,1.6-.872c.965.372,1.4,2.183,1.354,3.1,0,.068-.144.9-.2,1.2v-.03a16.077,16.077,0,0,1,1.608-2.335,20.141,20.141,0,0,1,1.718-1.862c.558-.554,1.1-1.02,1.587-1.434.267-.22.512-.423.745-.6h-.025s.571-1.113.618-1.176c.525-.762,1.98-1.921,2.962-1.625a1.219,1.219,0,0,1,.728,1.667,2.619,2.619,0,0,1-1.743,1.269,7.887,7.887,0,0,1-2.488-.106c-.237.195-.487.4-.762.639-.474.423-1.007.9-1.549,1.464-.148.148-.3.313-.444.474.3-.216.728-.508.77-.529.817-.423,2.644-.791,3.385-.072a1.219,1.219,0,0,1-.118,1.815,2.538,2.538,0,0,1-2.115.309,8.178,8.178,0,0,1-2.17-1.269c-.322.355-.647.728-.96,1.138a15.426,15.426,0,0,0-1.536,2.34c-.025.047-.047.1-.072.148.135-.131.914-.808.973-.846.762-.52,2.539-1.079,3.359-.444a1.227,1.227,0,0,1,.076,1.819,2.559,2.559,0,0,1-2.082.537,8.576,8.576,0,0,1-2.34-1.032,21.916,21.916,0,0,0-1.087,2.572c-.229.652-.423,1.32-.635,1.993.178-.169.9-.8.96-.846.762-.52,2.539-1.079,3.355-.423a1.223,1.223,0,0,1,.076,1.819,2.54,2.54,0,0,1-2.082.537,8.5,8.5,0,0,1-2.327-1.024c-.093.3-.182.609-.271.918-.292,1-.575,2.005-.888,2.991-.11.338-.229.669-.347,1,.275-.241.778-.677.825-.711.762-.52,2.539-1.075,3.355-.423a1.223,1.223,0,0,1,.08,1.815,2.561,2.561,0,0,1-2.082.542,7.961,7.961,0,0,1-2.255-.982c-.2.55-.423,1.1-.643,1.62-.106.224-.2.461-.313.668l-.326.635c-.237.423-.457.846-.69,1.214-.114.2-.228.381-.343.571.237-.288.622-.74.664-.774.673-.63,2.348-1.451,3.249-.948a1.227,1.227,0,0,1,.355,1.785,2.569,2.569,0,0,1-1.976.846,8.382,8.382,0,0,1-2.45-.656c-.283.47-.563.918-.846,1.337-.846,1.32-1.612,2.391-2.154,3.131s-.872,1.155-.872,1.155h0a.364.364,0,0,1-.558-.465S402.476,217.89,403.03,217.171Z" transform="translate(-388.481 -183.352)" fill="#ffe038"/>
        <path id="Trazado_33861" data-name="Trazado 33861" d="M429.9,195.5a8.763,8.763,0,0,1-1.642-1.98,2.532,2.532,0,0,1-.047-2.149,1.223,1.223,0,0,1,1.769-.423c.846.613.783,2.475.491,3.351C430.451,194.394,429.918,195.528,429.9,195.5Z" transform="translate(-403.446 -184.327)" fill="#ffe038"/>
        <path id="Trazado_33862" data-name="Trazado 33862" d="M384.668,226.035c-.245-.618-.605-1.5-1.092-2.539-.135-.3-.288-.618-.449-.939a6.168,6.168,0,0,1-1.8.487,1.87,1.87,0,0,1-1.451-.622.9.9,0,0,1,.258-1.312c.66-.372,1.891.228,2.39.69.03.03.368.423.533.626-.1-.195-.19-.389-.3-.588-.148-.292-.313-.592-.474-.888l-.267-.448c-.085-.157-.19-.3-.284-.444-.144-.216-.3-.423-.465-.647a5.62,5.62,0,0,1-1.62.707,1.874,1.874,0,0,1-1.532-.393.9.9,0,0,1,.055-1.337c.6-.465,1.908-.059,2.467.322a2.023,2.023,0,0,1,.258.216c-.161-.2-.322-.423-.491-.613-.487-.575-.994-1.142-1.506-1.718l-.317-.36a6.007,6.007,0,0,1-1.663.732,1.9,1.9,0,0,1-1.532-.393.9.9,0,0,1,.055-1.337c.6-.465,1.9-.063,2.467.317l.3.254c-.271-.317-.537-.635-.8-.96a15.475,15.475,0,0,1-1.21-1.739,6.346,6.346,0,0,1-1.714.757,1.887,1.887,0,0,1-1.532-.393.9.9,0,0,1,.055-1.337c.6-.465,1.908-.059,2.471.322.038.025.512.423.673.58v-.021a11.745,11.745,0,0,1-.846-1.9,16.157,16.157,0,0,1-.525-1.785c-.135-.559-.224-1.083-.3-1.544-.038-.25-.072-.478-.1-.694h0s-.487-.778-.508-.846c-.283-.618-.461-1.976.1-2.484a.9.9,0,0,1,1.324.169,1.879,1.879,0,0,1,.127,1.574,5.922,5.922,0,0,1-1.007,1.527c.034.224.072.461.114.724.089.457.186.973.334,1.527.038.148.089.309.131.461,0-.275-.042-.652-.038-.69.034-.677.5-1.963,1.235-2.158a.9.9,0,0,1,1.1.766,1.87,1.87,0,0,1-.609,1.455,6.042,6.042,0,0,1-1.608.893c.1.338.216.685.351,1.037a11.58,11.58,0,0,0,.893,1.853l.068.1c-.034-.135-.161-.88-.165-.935-.038-.677.284-2.005.99-2.281a.9.9,0,0,1,1.176.639,1.87,1.87,0,0,1-.448,1.515,6.347,6.347,0,0,1-1.536,1.083,15.178,15.178,0,0,0,1.21,1.659c.322.389.664.774,1.015,1.155-.042-.173-.161-.872-.165-.922-.038-.677.283-2.005.994-2.281a.9.9,0,0,1,1.172.639,1.87,1.87,0,0,1-.448,1.515,6.131,6.131,0,0,1-1.527,1.079l.419.563c.52.558,1.045,1.121,1.549,1.692.173.195.334.4.5.6-.051-.267-.131-.749-.135-.791-.038-.677.284-2.005.994-2.281a.9.9,0,0,1,1.172.639,1.883,1.883,0,0,1-.444,1.515,5.958,5.958,0,0,1-1.472,1.049c.271.334.533.677.779,1.02.1.152.212.3.3.453l.279.444c.178.309.343.6.5.893.085.148.157.288.233.423-.093-.262-.228-.677-.237-.715-.144-.664-.025-2.027.635-2.407a.9.9,0,0,1,1.269.453,1.878,1.878,0,0,1-.212,1.565,6.1,6.1,0,0,1-1.341,1.295c.186.355.364.7.525,1.032.512,1.037.9,1.921,1.159,2.539s.4.986.4.986h0a.271.271,0,0,1-.165.338.267.267,0,0,1-.338-.165S384.893,226.657,384.668,226.035Z" transform="translate(-371.541 -191.721)" fill="#ffe038"/>
        <path id="Trazado_33863" data-name="Trazado 33863" d="M373.332,216.218a6.312,6.312,0,0,1-1.866.283,1.853,1.853,0,0,1-1.375-.783.9.9,0,0,1,.423-1.269c.7-.292,1.853.444,2.3.96C372.833,215.452,373.344,216.214,373.332,216.218Z" transform="translate(-369.974 -197.973)" fill="#ffe038"/>
        <path id="Trazado_33864" data-name="Trazado 33864" d="M394.8,209.193c.114-.9.262-2.192.368-3.744.03-.448.055-.922.076-1.413a8.332,8.332,0,0,1-2.462-.6,2.468,2.468,0,0,1-1.324-1.692,1.223,1.223,0,0,1,1.168-1.4c1.032,0,2.116,1.51,2.395,2.386.021.059.165.745.233,1.1,0-.292.021-.588.03-.9v-1.362c0-.237,0-.474-.021-.715s-.034-.474-.051-.711c-.03-.355-.08-.715-.127-1.075a8.168,8.168,0,0,1-2.4-.224,2.579,2.579,0,0,1-1.565-1.472,1.223,1.223,0,0,1,.939-1.557c1.02-.165,2.314,1.176,2.733,2,0,.025.085.207.165.423-.055-.351-.114-.7-.186-1.058q-.3-1.5-.668-3.034l-.14-.639a8.556,8.556,0,0,1-2.462-.22,2.544,2.544,0,0,1-1.57-1.472,1.223,1.223,0,0,1,.944-1.557c1.02-.165,2.31,1.176,2.729,2,0,.03.1.245.19.491-.118-.554-.228-1.108-.322-1.663a21.775,21.775,0,0,1-.3-2.873,8.724,8.724,0,0,1-2.539-.216,2.554,2.554,0,0,1-1.57-1.472,1.223,1.223,0,0,1,.944-1.557c1.02-.165,2.314,1.176,2.733,2,.03.059.326.846.423,1.138v-.034a16.025,16.025,0,0,1,.216-2.826,21.461,21.461,0,0,1,.546-2.471q.311-1.136.652-2.039c.118-.322.233-.618.343-.893h-.021c-.021,0-.068-1.248-.059-1.324.068-.922.745-2.657,1.747-2.9a1.227,1.227,0,0,1,1.472,1.075,2.568,2.568,0,0,1-.88,1.963,8.244,8.244,0,0,1-2.2,1.155c-.106.288-.216.6-.334.935-.2.605-.423,1.269-.605,2.044-.051.2-.1.423-.148.635a8.22,8.22,0,0,1,.423-.846c.487-.783,1.887-2.014,2.89-1.764a1.227,1.227,0,0,1,.808,1.629,2.547,2.547,0,0,1-1.692,1.337,8.2,8.2,0,0,1-2.5,0c-.1.47-.19.956-.258,1.468a15.449,15.449,0,0,0-.148,2.8v.161c.047-.182.385-1.155.423-1.223.4-.846,1.654-2.2,2.678-2.069a1.223,1.223,0,0,1,.982,1.532,2.562,2.562,0,0,1-1.527,1.515,8.687,8.687,0,0,1-2.539.283,21.225,21.225,0,0,0,.355,2.771c.127.677.288,1.358.453,2.039.068-.233.381-1.138.423-1.2.4-.846,1.654-2.209,2.678-2.073a1.227,1.227,0,0,1,.982,1.532,2.551,2.551,0,0,1-1.527,1.515,8.516,8.516,0,0,1-2.539.283c.076.313.148.622.228.931.254,1.011.512,2.022.736,3.034.076.347.14.694.207,1.041.114-.347.33-.977.355-1.028.4-.846,1.654-2.209,2.678-2.073a1.227,1.227,0,0,1,.982,1.532,2.562,2.562,0,0,1-1.527,1.515,8.049,8.049,0,0,1-2.441.288c.106.575.195,1.151.258,1.722.021.25.059.5.068.736l.038.715v2.061c.059-.368.169-.952.182-1.007.267-.88,1.3-2.433,2.336-2.45a1.219,1.219,0,0,1,1.2,1.362,2.581,2.581,0,0,1-1.269,1.73,9.083,9.083,0,0,1-2.441.664c0,.542-.025,1.075-.051,1.57-.072,1.574-.19,2.877-.288,3.808s-.173,1.439-.173,1.439h0a.364.364,0,1,1-.715-.118S394.681,210.082,394.8,209.193Z" transform="translate(-380.953 -175.598)" fill="#ffe038"/>
        <path id="Trazado_33865" data-name="Trazado 33865" d="M395.3,189.144a8.835,8.835,0,0,1-2.416-.889,2.565,2.565,0,0,1-1.121-1.832,1.223,1.223,0,0,1,1.32-1.269c1.024.11,1.917,1.743,2.115,2.649C395.2,187.9,395.313,189.149,395.3,189.144Z" transform="translate(-382.541 -181.109)" fill="#ffe038"/>
      </g>
    </g>
    <g id="Card--inject-52" transform="translate(236.693 153.096)">
      <rect id="Rectángulo_3858" data-name="Rectángulo 3858" width="96.572" height="59.031" rx="3" transform="translate(0 6.232) rotate(-3.7)" fill="#02c39a" stroke="#263238" stroke-linecap="round" stroke-linejoin="round" stroke-width="0.5"/>
      <path id="Trazado_33902" data-name="Trazado 33902" d="M234.017,167.311l-90.459,5.843a2.962,2.962,0,0,0-2.767,3.152l.986,15.232,96.374-6.228-.986-15.232a2.962,2.962,0,0,0-3.148-2.767Z" transform="translate(-140.602 -167.116)" fill="#263238"/>
      <path id="Trazado_33903" data-name="Trazado 33903" d="M182.463,253.074c-16.543,8.513-27.341,10.408-33.823,10.328l.106,1.646a2.962,2.962,0,0,0,3.152,2.767l90.454-5.847a2.962,2.962,0,0,0,2.767-3.152l-1.908-29.545C217.271,229.757,209.922,238.942,182.463,253.074Z" transform="translate(-145.134 -202.863)" fill="#263238"/>
      <rect id="Rectángulo_3859" data-name="Rectángulo 3859" width="10.332" height="9.989" rx="3.07" transform="translate(9.633 20.028) rotate(-3.7)" fill="#fff" stroke="#263238" stroke-linecap="round" stroke-linejoin="round" stroke-width="0.5"/>
      <rect id="Rectángulo_3860" data-name="Rectángulo 3860" width="1.847" height="1.786" rx="0.893" transform="translate(14.13 23.868) rotate(-3.7)" fill="#fff" stroke="#263238" stroke-linecap="round" stroke-linejoin="round" stroke-width="0.5"/>
      <path id="Trazado_33904" data-name="Trazado 33904" d="M163.28,216.488l1.742-.112a.615.615,0,0,1,.654.576l.049.732" transform="translate(-151.289 -193.826)" fill="none" stroke="#263238" stroke-linecap="round" stroke-linejoin="round" stroke-width="0.5"/>
      <path id="Trazado_33905" data-name="Trazado 33905" d="M180.532,215.27l-1.72.11a.617.617,0,0,0-.576.654l.049.732" transform="translate(-162.596 -192.991)" fill="none" stroke="#263238" stroke-linecap="round" stroke-linejoin="round" stroke-width="0.5"/>
      <path id="Trazado_33906" data-name="Trazado 33906" d="M164.48,230.678l1.742-.112a.615.615,0,0,0,.573-.654l-.046-.732" transform="translate(-152.196 -203.507)" fill="none" stroke="#263238" stroke-linecap="round" stroke-linejoin="round" stroke-width="0.5"/>
      <path id="Trazado_33907" data-name="Trazado 33907" d="M181.38,230.045l-1.708.11a.615.615,0,0,1-.656-.573l-.046-.732" transform="translate(-163.152 -203.258)" fill="none" stroke="#263238" stroke-linecap="round" stroke-linejoin="round" stroke-width="0.5"/>
      <line id="Línea_34" data-name="Línea 34" y1="0.132" x2="2.042" transform="translate(12.154 24.899)" fill="none" stroke="#263238" stroke-linecap="round" stroke-linejoin="round" stroke-width="0.5"/>
      <line id="Línea_35" data-name="Línea 35" y1="0.132" x2="2.039" transform="translate(15.989 24.65)" fill="none" stroke="#263238" stroke-linecap="round" stroke-linejoin="round" stroke-width="0.5"/>
      <text id="CREDIT_CARD" data-name="CREDIT CARD" transform="translate(53.111 13.004) rotate(-3.7)" fill="#fff" font-size="4" font-family="Nunito-Regular, Nunito"><tspan x="0" y="0">CREDIT CARD</tspan></text>
      <text id="_0000000000000000" data-name="0000000000000000" transform="translate(10.642 43.26) rotate(-3.7)" fill="#fff" font-size="5" font-family="Nunito-Regular, Nunito" letter-spacing="0.1em"><tspan x="0" y="0">0000000000000000</tspan></text>
      <ellipse id="Elipse_1535" data-name="Elipse 1535" cx="4.832" cy="4.832" rx="4.832" ry="4.832" transform="translate(73.306 53.241) rotate(-68.97)" fill="#fff" stroke="#263238" stroke-linecap="round" stroke-linejoin="round" stroke-width="1"/>
      <ellipse id="Elipse_1536" data-name="Elipse 1536" cx="4.832" cy="4.832" rx="4.832" ry="4.832" transform="matrix(0.069, -0.998, 0.998, 0.069, 80.943, 54.52)" fill="#fff" stroke="#263238" stroke-linecap="round" stroke-linejoin="round" stroke-width="1"/>
    </g>
    <g id="Coins--inject-52" transform="translate(312.201 185.691)">
      <ellipse id="Elipse_1537" data-name="Elipse 1537" cx="11.085" cy="11.085" rx="11.085" ry="11.085" transform="matrix(0.964, -0.265, 0.265, 0.964, 17.516, 8.23)" fill="#fff" stroke="#263238" stroke-linecap="round" stroke-linejoin="round" stroke-width="0.5"/>
      <ellipse id="Elipse_1538" data-name="Elipse 1538" cx="11.085" cy="11.085" rx="11.085" ry="11.085" transform="translate(19.397 24.886) rotate(-86.44)" fill="#fff" stroke="#263238" stroke-linecap="round" stroke-linejoin="round" stroke-width="0.5"/>
      <path id="Trazado_33908" data-name="Trazado 33908" d="M438.9,266.43a9.426,9.426,0,0,0-2.386-4.019" transform="translate(-398.714 -254.578)" fill="#fff" stroke="#263238" stroke-linecap="round" stroke-linejoin="round" stroke-width="0.5"/>
      <path id="Trazado_33909" data-name="Trazado 33909" d="M423.25,286.193a9.243,9.243,0,0,0,1.375-.258,9.427,9.427,0,0,0,6.952-10.1" transform="translate(-391.064 -262.326)" fill="#fff" stroke="#263238" stroke-linecap="round" stroke-linejoin="round" stroke-width="0.5"/>
      <path id="Trazado_33910" data-name="Trazado 33910" d="M413.22,257.535a9.422,9.422,0,1,0-5.251,17.22" transform="translate(-376.79 -250.828)" fill="#fff" stroke="#263238" stroke-linecap="round" stroke-linejoin="round" stroke-width="0.5"/>
      <path id="Trazado_33911" data-name="Trazado 33911" d="M411.344,273.718a.885.885,0,0,1-.444-.364.906.906,0,0,1-.135-.512,1.207,1.207,0,0,1,.148-.516.719.719,0,0,1,.423-.347,1.209,1.209,0,0,1,.647-.03l.381.089c.207.047.389.089.537.114a4.059,4.059,0,0,0,.63.038,3.78,3.78,0,0,0,.808-.089,2.867,2.867,0,0,0,.6-.157,3.568,3.568,0,0,0,.571-.262,1.006,1.006,0,0,0,.4-.389.689.689,0,0,0,.055-.537.618.618,0,0,0-.393-.377,2.116,2.116,0,0,0-.88-.135h-1.324c-.5,0-.9-.021-1.21-.047a6.013,6.013,0,0,1-.948-.148,2.192,2.192,0,0,1-.787-.326,2.218,2.218,0,0,1-.542-.575,2.961,2.961,0,0,1-.389-.9,2.344,2.344,0,0,1,.592-2.319,5.141,5.141,0,0,1,2.856-1.4,6.447,6.447,0,0,1,1.07-.135,5.77,5.77,0,0,1,.8,0c.19.021.423.055.74.11a1.036,1.036,0,0,1,.58.288.846.846,0,0,1,.267.487,1.181,1.181,0,0,1-.034.529.668.668,0,0,1-.343.423,1.2,1.2,0,0,1-.647.114,7.989,7.989,0,0,0-1.929.055,5.867,5.867,0,0,0-.685.178,1.536,1.536,0,0,0-.613.347.5.5,0,0,0-.182.508.618.618,0,0,0,.372.423,2.247,2.247,0,0,0,.846.1l1.307-.025a12.339,12.339,0,0,1,1.362.063,4.1,4.1,0,0,1,1.054.271,2.115,2.115,0,0,1,.821.6,2.881,2.881,0,0,1-.732,4.231,5.606,5.606,0,0,1-1.98.8A6.448,6.448,0,0,1,411.344,273.718Zm.186-10.827a.592.592,0,0,1,.068-.52.618.618,0,0,1,.381-.275.681.681,0,0,1,.47.059.6.6,0,0,1,.313.423l.6,2.255-1.235.33Zm3,10.577,1.244-.33.6,2.238a.6.6,0,0,1-.169.635.669.669,0,0,1-.618.173.6.6,0,0,1-.457-.478Z" transform="translate(-383.072 -254.386)" fill="#263238"/>
      <line id="Línea_36" data-name="Línea 36" y2="1.4" transform="translate(21.98 20.711)" fill="none" stroke="#263238" stroke-linecap="round" stroke-linejoin="round" stroke-width="0.5"/>
      <line id="Línea_37" data-name="Línea 37" y2="1.489" transform="translate(22.971 22.112)" fill="none" stroke="#263238" stroke-linecap="round" stroke-linejoin="round" stroke-width="0.5"/>
      <line id="Línea_38" data-name="Línea 38" y2="1.4" transform="translate(24.951 23.766)" fill="none" stroke="#263238" stroke-linecap="round" stroke-linejoin="round" stroke-width="0.5"/>
      <line id="Línea_39" data-name="Línea 39" y2="1.24" transform="translate(27.756 25.166)" fill="none" stroke="#263238" stroke-linecap="round" stroke-linejoin="round" stroke-width="0.5"/>
      <line id="Línea_40" data-name="Línea 40" y2="0.575" transform="translate(30.811 25.746)" fill="none" stroke="#263238" stroke-linecap="round" stroke-linejoin="round" stroke-width="0.5"/>
      <line id="Línea_41" data-name="Línea 41" y1="0.905" transform="translate(36.835 24.591)" fill="none" stroke="#263238" stroke-linecap="round" stroke-linejoin="round" stroke-width="0.5"/>
      <line id="Línea_42" data-name="Línea 42" y1="1.405" transform="translate(38.156 23.186)" fill="none" stroke="#263238" stroke-linecap="round" stroke-linejoin="round" stroke-width="0.5"/>
      <ellipse id="Elipse_1539" data-name="Elipse 1539" cx="11.085" cy="11.085" rx="11.085" ry="11.085" transform="matrix(0.985, -0.173, 0.173, 0.985, 2.478, 16.082)" fill="#fff" stroke="#263238" stroke-linecap="round" stroke-linejoin="round" stroke-width="0.5"/>
      <ellipse id="Elipse_1540" data-name="Elipse 1540" cx="11.085" cy="11.085" rx="11.085" ry="11.085" transform="matrix(0.985, -0.173, 0.173, 0.985, 2.475, 14.598)" fill="#fff" stroke="#263238" stroke-linecap="round" stroke-linejoin="round" stroke-width="0.5"/>
      <path id="Trazado_33912" data-name="Trazado 33912" d="M378.543,291.767a9.422,9.422,0,1,0-12.955,3.1,9.422,9.422,0,0,0,12.955-3.1Z" transform="translate(-355.204 -263.233)" fill="#fff" stroke="#263238" stroke-linecap="round" stroke-linejoin="round" stroke-width="0.5"/>
      <path id="Trazado_33913" data-name="Trazado 33913" d="M370.333,292.217a.9.9,0,0,1,.237-1.024,1.188,1.188,0,0,1,.47-.245.732.732,0,0,1,.533.051,1.269,1.269,0,0,1,.47.453c.025.038.093.148.2.334s.2.343.288.47a3.8,3.8,0,0,0,.423.482,3.925,3.925,0,0,0,.622.525,2.886,2.886,0,0,0,.529.326,3.669,3.669,0,0,0,.584.237,1.028,1.028,0,0,0,.554,0,.694.694,0,0,0,.423-.326.618.618,0,0,0,0-.55,2.166,2.166,0,0,0-.508-.732l-.91-.96c-.338-.364-.605-.669-.8-.905a6.52,6.52,0,0,1-.546-.791,2.084,2.084,0,0,1-.3-.8,2.218,2.218,0,0,1,.042-.791,2.929,2.929,0,0,1,.385-.9,2.34,2.34,0,0,1,2.086-1.176,5.157,5.157,0,0,1,2.983,1.1,5.918,5.918,0,0,1,.846.681,7.073,7.073,0,0,1,.546.588c.118.152.258.355.423.614a1.028,1.028,0,0,1,.195.618.889.889,0,0,1-.169.529,1.184,1.184,0,0,1-.423.338.643.643,0,0,1-.525.03,1.244,1.244,0,0,1-.529-.389,7.887,7.887,0,0,0-1.371-1.362,7.041,7.041,0,0,0-.6-.372,1.514,1.514,0,0,0-.673-.2.5.5,0,0,0-.5.22.605.605,0,0,0-.059.567,2.188,2.188,0,0,0,.525.694l.918.931a12.154,12.154,0,0,1,.893,1.032,3.968,3.968,0,0,1,.529.948,2.039,2.039,0,0,1,.131,1.011,2.771,2.771,0,0,1-.389,1.058,2.729,2.729,0,0,1-1.367,1.219,3.055,3.055,0,0,1-1.8.118,5.534,5.534,0,0,1-1.946-.88A6.4,6.4,0,0,1,370.333,292.217Zm7.971-7.328a.6.6,0,0,1,.423-.313.656.656,0,0,1,.461.089.7.7,0,0,1,.283.385.6.6,0,0,1-.08.508l-1.219,1.989-1.087-.681Zm-5.615,9.465,1.1.673-1.2,1.993a.592.592,0,0,1-.571.313.652.652,0,0,1-.554-.326.588.588,0,0,1,.03-.66Z" transform="translate(-360.496 -267.36)" fill="#263238"/>
      <line id="Línea_43" data-name="Línea 43" y2="1.405" transform="translate(6.148 29.812)" fill="none" stroke="#263238" stroke-linecap="round" stroke-linejoin="round" stroke-width="0.5"/>
      <line id="Línea_44" data-name="Línea 44" y2="1.485" transform="translate(7.138 31.217)" fill="none" stroke="#263238" stroke-linecap="round" stroke-linejoin="round" stroke-width="0.5"/>
      <line id="Línea_45" data-name="Línea 45" y2="1.4" transform="translate(9.118 32.867)" fill="none" stroke="#263238" stroke-linecap="round" stroke-linejoin="round" stroke-width="0.5"/>
      <line id="Línea_46" data-name="Línea 46" y2="1.24" transform="translate(11.923 34.267)" fill="none" stroke="#263238" stroke-linecap="round" stroke-linejoin="round" stroke-width="0.5"/>
      <line id="Línea_47" data-name="Línea 47" y2="0.58" transform="translate(14.978 34.847)" fill="none" stroke="#263238" stroke-linecap="round" stroke-linejoin="round" stroke-width="0.5"/>
      <line id="Línea_48" data-name="Línea 48" y1="0.905" transform="translate(21.003 33.692)" fill="none" stroke="#263238" stroke-linecap="round" stroke-linejoin="round" stroke-width="0.5"/>
      <line id="Línea_49" data-name="Línea 49" y1="1.405" transform="translate(22.323 32.287)" fill="none" stroke="#263238" stroke-linecap="round" stroke-linejoin="round" stroke-width="0.5"/>
      <ellipse id="Elipse_1541" data-name="Elipse 1541" cx="11.085" cy="11.085" rx="11.085" ry="11.085" transform="matrix(0.979, -0.205, 0.205, 0.979, 2.181, 14.237)" fill="#fff" stroke="#263238" stroke-linecap="round" stroke-linejoin="round" stroke-width="0.5"/>
      <ellipse id="Elipse_1542" data-name="Elipse 1542" cx="11.085" cy="11.085" rx="11.085" ry="11.085" transform="matrix(0.979, -0.205, 0.205, 0.979, 2.182, 12.754)" fill="#fff" stroke="#263238" stroke-linecap="round" stroke-linejoin="round" stroke-width="0.5"/>
      <ellipse id="Elipse_1543" data-name="Elipse 1543" cx="9.422" cy="9.422" rx="9.422" ry="9.422" transform="translate(3.957 14.352) rotate(-13.37)" fill="#fff" stroke="#263238" stroke-linecap="round" stroke-linejoin="round" stroke-width="0.5"/>
      <path id="Trazado_33914" data-name="Trazado 33914" d="M370.335,286.83a.893.893,0,0,1,.237-1.02,1.2,1.2,0,0,1,.47-.25.753.753,0,0,1,.533.055,1.236,1.236,0,0,1,.47.449c.025.042.093.152.2.338s.2.343.288.47a3.811,3.811,0,0,0,.423.482,3.9,3.9,0,0,0,.622.52,2.684,2.684,0,0,0,.529.33,3.643,3.643,0,0,0,.584.233.99.99,0,0,0,.554.021.7.7,0,0,0,.423-.33.617.617,0,0,0,0-.55,2.153,2.153,0,0,0-.508-.728l-.922-.977c-.338-.368-.605-.668-.8-.91a6.2,6.2,0,0,1-.546-.791,2.066,2.066,0,0,1-.3-.8,2.2,2.2,0,0,1,.042-.787,2.991,2.991,0,0,1,.385-.9,2.336,2.336,0,0,1,2.086-1.172,5.128,5.128,0,0,1,2.983,1.1,5.92,5.92,0,0,1,.846.681,6.457,6.457,0,0,1,.533.609c.118.152.258.355.423.609a1.045,1.045,0,0,1,.195.618.888.888,0,0,1-.169.533,1.231,1.231,0,0,1-.423.338.643.643,0,0,1-.525.025,1.231,1.231,0,0,1-.529-.385,7.741,7.741,0,0,0-1.371-1.362q-.272-.2-.563-.377a1.514,1.514,0,0,0-.673-.2.512.512,0,0,0-.5.22.614.614,0,0,0-.059.571,2.188,2.188,0,0,0,.508.681l.918.931a10.969,10.969,0,0,1,.893,1.032,3.887,3.887,0,0,1,.529.948,2.035,2.035,0,0,1,.131,1.011,2.8,2.8,0,0,1-.389,1.058,2.737,2.737,0,0,1-1.367,1.214,3.055,3.055,0,0,1-1.8.123,5.614,5.614,0,0,1-1.946-.88A6.389,6.389,0,0,1,370.335,286.83Zm7.971-7.328a.622.622,0,0,1,.884-.22.668.668,0,0,1,.284.385.588.588,0,0,1-.08.5l-1.218,1.989-1.087-.668Zm-5.615,9.469,1.1.673-1.21,1.972a.588.588,0,0,1-.571.317.664.664,0,0,1-.554-.33.588.588,0,0,1,.03-.66Z" transform="translate(-360.497 -264.253)" fill="#263238"/>
      <line id="Línea_50" data-name="Línea 50" y2="1.4" transform="translate(6.148 27.536)" fill="none" stroke="#263238" stroke-linecap="round" stroke-linejoin="round" stroke-width="0.5"/>
      <line id="Línea_51" data-name="Línea 51" y2="1.485" transform="translate(7.138 28.936)" fill="none" stroke="#263238" stroke-linecap="round" stroke-linejoin="round" stroke-width="0.5"/>
      <line id="Línea_52" data-name="Línea 52" y2="1.405" transform="translate(9.118 30.586)" fill="none" stroke="#263238" stroke-linecap="round" stroke-linejoin="round" stroke-width="0.5"/>
      <line id="Línea_53" data-name="Línea 53" y2="1.24" transform="translate(11.923 31.991)" fill="none" stroke="#263238" stroke-linecap="round" stroke-linejoin="round" stroke-width="0.5"/>
      <line id="Línea_54" data-name="Línea 54" y2="0.575" transform="translate(14.978 32.571)" fill="none" stroke="#263238" stroke-linecap="round" stroke-linejoin="round" stroke-width="0.5"/>
      <line id="Línea_55" data-name="Línea 55" y1="0.905" transform="translate(21.003 31.416)" fill="none" stroke="#263238" stroke-linecap="round" stroke-linejoin="round" stroke-width="0.5"/>
      <line id="Línea_56" data-name="Línea 56" y1="1.405" transform="translate(22.323 30.011)" fill="none" stroke="#263238" stroke-linecap="round" stroke-linejoin="round" stroke-width="0.5"/>
      <ellipse id="Elipse_1544" data-name="Elipse 1544" cx="11.085" cy="11.085" rx="11.085" ry="11.085" transform="translate(0 23.891) rotate(-57.4)" fill="#fff" stroke="#263238" stroke-linecap="round" stroke-linejoin="round" stroke-width="0.5"/>
      <ellipse id="Elipse_1545" data-name="Elipse 1545" cx="11.085" cy="11.085" rx="11.085" ry="11.085" transform="translate(0.001 22.408) rotate(-57.4)" fill="#fff" stroke="#263238" stroke-linecap="round" stroke-linejoin="round" stroke-width="0.5"/>
      <ellipse id="Elipse_1546" data-name="Elipse 1546" cx="9.422" cy="9.422" rx="9.422" ry="9.422" transform="translate(3.349 24.907) rotate(-71.2)" fill="#fff" stroke="#263238" stroke-linecap="round" stroke-linejoin="round" stroke-width="0.5"/>
      <path id="Trazado_33915" data-name="Trazado 33915" d="M370.333,281.41a.876.876,0,0,1-.042-.567.91.91,0,0,1,.279-.457,1.27,1.27,0,0,1,.47-.245.711.711,0,0,1,.533.055,1.235,1.235,0,0,1,.47.448c.025.038.093.152.2.334s.2.343.288.47a3.3,3.3,0,0,0,.423.482,3.926,3.926,0,0,0,.622.525,2.684,2.684,0,0,0,.529.33,4.087,4.087,0,0,0,.584.233.99.99,0,0,0,.554,0,.677.677,0,0,0,.423-.326.618.618,0,0,0,0-.55,2.154,2.154,0,0,0-.508-.728l-.91-.96c-.338-.368-.605-.673-.8-.91a6.521,6.521,0,0,1-.546-.791,2.084,2.084,0,0,1-.3-.8,2.2,2.2,0,0,1,.042-.787,2.963,2.963,0,0,1,.385-.9,2.327,2.327,0,0,1,2.086-1.172,5.119,5.119,0,0,1,2.983,1.1,6.24,6.24,0,0,1,.846.681,6.4,6.4,0,0,1,.546.592c.118.152.258.355.423.609a1.037,1.037,0,0,1,.195.618.889.889,0,0,1-.169.533,1.223,1.223,0,0,1-.423.334.643.643,0,0,1-.525.03,1.211,1.211,0,0,1-.529-.389,7.886,7.886,0,0,0-1.371-1.362,7.057,7.057,0,0,0-.6-.372,1.514,1.514,0,0,0-.673-.2.5.5,0,0,0-.5.22.613.613,0,0,0-.059.571,2.179,2.179,0,0,0,.525.69l.918.931a12.164,12.164,0,0,1,.893,1.032,3.913,3.913,0,0,1,.529.952,2.018,2.018,0,0,1,.131,1.007,2.788,2.788,0,0,1-.389,1.062,2.737,2.737,0,0,1-1.367,1.214,3.088,3.088,0,0,1-1.8.123,5.614,5.614,0,0,1-1.946-.88A6.435,6.435,0,0,1,370.333,281.41Zm7.971-7.328a.6.6,0,0,1,.423-.309.634.634,0,0,1,.461.085.7.7,0,0,1,.283.385.6.6,0,0,1-.08.508l-1.2,1.989-1.087-.668Zm-5.615,9.469,1.1.673-1.21,1.972a.6.6,0,0,1-.571.317.664.664,0,0,1-.554-.33.588.588,0,0,1,.03-.66Z" transform="translate(-360.496 -261.126)" fill="#263238"/>
      <line id="Línea_57" data-name="Línea 57" y2="1.405" transform="translate(6.148 25.238)" fill="none" stroke="#263238" stroke-linecap="round" stroke-linejoin="round" stroke-width="0.5"/>
      <line id="Línea_58" data-name="Línea 58" y2="1.485" transform="translate(7.138 26.643)" fill="none" stroke="#263238" stroke-linecap="round" stroke-linejoin="round" stroke-width="0.5"/>
      <line id="Línea_59" data-name="Línea 59" y2="1.405" transform="translate(9.118 28.293)" fill="none" stroke="#263238" stroke-linecap="round" stroke-linejoin="round" stroke-width="0.5"/>
      <line id="Línea_60" data-name="Línea 60" y2="1.235" transform="translate(11.923 29.698)" fill="none" stroke="#263238" stroke-linecap="round" stroke-linejoin="round" stroke-width="0.5"/>
      <line id="Línea_61" data-name="Línea 61" y2="0.58" transform="translate(14.978 30.273)" fill="none" stroke="#263238" stroke-linecap="round" stroke-linejoin="round" stroke-width="0.5"/>
      <line id="Línea_62" data-name="Línea 62" y1="0.91" transform="translate(21.003 29.118)" fill="none" stroke="#263238" stroke-linecap="round" stroke-linejoin="round" stroke-width="0.5"/>
      <line id="Línea_63" data-name="Línea 63" y1="1.4" transform="translate(22.323 27.718)" fill="none" stroke="#263238" stroke-linecap="round" stroke-linejoin="round" stroke-width="0.5"/>
      <ellipse id="Elipse_1547" data-name="Elipse 1547" cx="11.085" cy="11.085" rx="11.085" ry="11.085" transform="matrix(0.985, -0.173, 0.173, 0.985, 2.478, 9.442)" fill="#fff" stroke="#263238" stroke-linecap="round" stroke-linejoin="round" stroke-width="0.5"/>
      <ellipse id="Elipse_1548" data-name="Elipse 1548" cx="11.085" cy="11.085" rx="11.085" ry="11.085" transform="translate(2.538 7.872) rotate(-9.57)" fill="#fff" stroke="#263238" stroke-linecap="round" stroke-linejoin="round" stroke-width="0.5"/>
      <ellipse id="Elipse_1549" data-name="Elipse 1549" cx="9.422" cy="9.422" rx="9.422" ry="9.422" transform="translate(3.345 22.84) rotate(-71.2)" fill="#fff" stroke="#263238" stroke-linecap="round" stroke-linejoin="round" stroke-width="0.5"/>
      <path id="Trazado_33916" data-name="Trazado 33916" d="M370.335,276.57a.893.893,0,0,1,.237-1.02,1.2,1.2,0,0,1,.47-.25.732.732,0,0,1,.533.055,1.235,1.235,0,0,1,.47.448c.025.038.093.152.2.339s.2.343.288.47a3.813,3.813,0,0,0,.423.482,3.9,3.9,0,0,0,.622.52,2.683,2.683,0,0,0,.529.33,3.64,3.64,0,0,0,.584.233,1.033,1.033,0,0,0,.554.021.7.7,0,0,0,.423-.33.618.618,0,0,0,0-.55,2.153,2.153,0,0,0-.508-.728l-.91-.96c-.338-.368-.605-.668-.8-.91a6.2,6.2,0,0,1-.546-.791,2.064,2.064,0,0,1-.3-.8,2.195,2.195,0,0,1,.042-.787,2.991,2.991,0,0,1,.385-.9,2.335,2.335,0,0,1,2.086-1.172,5.128,5.128,0,0,1,2.983,1.1,5.928,5.928,0,0,1,.846.681,6.459,6.459,0,0,1,.546.588c.118.152.258.355.423.609a1.045,1.045,0,0,1,.195.618.888.888,0,0,1-.169.533,1.232,1.232,0,0,1-.423.339.643.643,0,0,1-.525.025,1.21,1.21,0,0,1-.529-.389,7.861,7.861,0,0,0-1.371-1.358,7.026,7.026,0,0,0-.6-.377,1.515,1.515,0,0,0-.673-.2.512.512,0,0,0-.5.22.614.614,0,0,0-.059.571,2.188,2.188,0,0,0,.525.694l.918.931a10.977,10.977,0,0,1,.893,1.032,3.889,3.889,0,0,1,.529.948,2.036,2.036,0,0,1,.131,1.011,2.8,2.8,0,0,1-.389,1.058,2.738,2.738,0,0,1-1.367,1.214,3.055,3.055,0,0,1-1.8.123,5.616,5.616,0,0,1-1.946-.88A6.389,6.389,0,0,1,370.335,276.57Zm7.971-7.328a.622.622,0,0,1,.884-.22.673.673,0,0,1,.283.381.6.6,0,0,1-.08.508l-1.218,1.989-1.087-.668Zm-5.615,9.444,1.1.673-1.21,1.972a.588.588,0,0,1-.571.317.664.664,0,0,1-.554-.33.588.588,0,0,1,.03-.66Z" transform="translate(-360.497 -258.334)" fill="#263238"/>
      <line id="Línea_64" data-name="Línea 64" y2="1.4" transform="translate(6.148 23.174)" fill="none" stroke="#263238" stroke-linecap="round" stroke-linejoin="round" stroke-width="0.5"/>
      <line id="Línea_65" data-name="Línea 65" y2="1.485" transform="translate(7.138 24.574)" fill="none" stroke="#263238" stroke-linecap="round" stroke-linejoin="round" stroke-width="0.5"/>
      <line id="Línea_66" data-name="Línea 66" y2="1.405" transform="translate(9.118 26.224)" fill="none" stroke="#263238" stroke-linecap="round" stroke-linejoin="round" stroke-width="0.5"/>
      <line id="Línea_67" data-name="Línea 67" y2="1.24" transform="translate(11.923 27.629)" fill="none" stroke="#263238" stroke-linecap="round" stroke-linejoin="round" stroke-width="0.5"/>
      <line id="Línea_68" data-name="Línea 68" y2="0.575" transform="translate(14.978 28.208)" fill="none" stroke="#263238" stroke-linecap="round" stroke-linejoin="round" stroke-width="0.5"/>
      <line id="Línea_69" data-name="Línea 69" y1="0.905" transform="translate(21.003 27.053)" fill="none" stroke="#263238" stroke-linecap="round" stroke-linejoin="round" stroke-width="0.5"/>
      <line id="Línea_70" data-name="Línea 70" y1="1.405" transform="translate(22.323 25.649)" fill="none" stroke="#263238" stroke-linecap="round" stroke-linejoin="round" stroke-width="0.5"/>
      <ellipse id="Elipse_1550" data-name="Elipse 1550" cx="11.085" cy="11.085" rx="11.085" ry="11.085" transform="matrix(0.985, -0.173, 0.173, 0.985, 2.477, 7.379)" fill="#fff" stroke="#263238" stroke-linecap="round" stroke-linejoin="round" stroke-width="0.5"/>
      <ellipse id="Elipse_1551" data-name="Elipse 1551" cx="11.085" cy="11.085" rx="11.085" ry="11.085" transform="matrix(0.985, -0.173, 0.173, 0.985, 2.478, 5.89)" fill="#fff" stroke="#263238" stroke-linecap="round" stroke-linejoin="round" stroke-width="0.5"/>
      <ellipse id="Elipse_1552" data-name="Elipse 1552" cx="9.422" cy="9.422" rx="9.422" ry="9.422" transform="translate(3.346 20.773) rotate(-71.2)" fill="#fff" stroke="#263238" stroke-linecap="round" stroke-linejoin="round" stroke-width="0.5"/>
      <path id="Trazado_33917" data-name="Trazado 33917" d="M370.334,271.637a.893.893,0,0,1-.042-.571.88.88,0,0,1,.279-.453,1.187,1.187,0,0,1,.47-.245.732.732,0,0,1,.533.051,1.27,1.27,0,0,1,.47.453c.025.038.093.148.2.334s.2.343.288.47a3.808,3.808,0,0,0,.423.482,3.922,3.922,0,0,0,.622.525,2.883,2.883,0,0,0,.529.326,4.12,4.12,0,0,0,.584.237,1.028,1.028,0,0,0,.554,0,.7.7,0,0,0,.423-.33.609.609,0,0,0,0-.546,2.166,2.166,0,0,0-.508-.732l-.91-.96c-.338-.368-.605-.668-.8-.91a5.923,5.923,0,0,1-.546-.791,2.065,2.065,0,0,1-.3-.8,2.2,2.2,0,0,1,.042-.787,2.928,2.928,0,0,1,.385-.9,2.34,2.34,0,0,1,2.086-1.176,5.158,5.158,0,0,1,2.983,1.1,5.925,5.925,0,0,1,.846.681,7.088,7.088,0,0,1,.546.588c.118.152.258.355.423.614a1.028,1.028,0,0,1,.195.618.888.888,0,0,1-.169.529,1.231,1.231,0,0,1-.423.338.643.643,0,0,1-.525.03,1.244,1.244,0,0,1-.529-.389,7.889,7.889,0,0,0-1.371-1.362,7.049,7.049,0,0,0-.6-.372,1.46,1.46,0,0,0-.673-.2.5.5,0,0,0-.495.22.605.605,0,0,0-.059.567,2.189,2.189,0,0,0,.525.694l.918.931a11.536,11.536,0,0,1,.893,1.032,3.967,3.967,0,0,1,.529.948,2.035,2.035,0,0,1,.131,1.011,2.771,2.771,0,0,1-.389,1.058,2.716,2.716,0,0,1-1.367,1.214,3.055,3.055,0,0,1-1.8.123,5.535,5.535,0,0,1-1.946-.88A6.4,6.4,0,0,1,370.334,271.637Zm7.971-7.328a.6.6,0,0,1,.423-.313.656.656,0,0,1,.461.089.7.7,0,0,1,.283.385.6.6,0,0,1-.08.508l-1.2,1.976-1.087-.668Zm-5.615,9.465,1.1.673-1.21,1.976a.592.592,0,0,1-.571.313.651.651,0,0,1-.554-.326.588.588,0,0,1,.03-.66Z" transform="translate(-360.496 -255.487)" fill="#263238"/>
      <line id="Línea_71" data-name="Línea 71" y2="1.405" transform="translate(6.148 21.105)" fill="none" stroke="#263238" stroke-linecap="round" stroke-linejoin="round" stroke-width="0.5"/>
      <line id="Línea_72" data-name="Línea 72" y2="1.485" transform="translate(7.138 22.509)" fill="none" stroke="#263238" stroke-linecap="round" stroke-linejoin="round" stroke-width="0.5"/>
      <line id="Línea_73" data-name="Línea 73" y2="1.4" transform="translate(9.118 24.159)" fill="none" stroke="#263238" stroke-linecap="round" stroke-linejoin="round" stroke-width="0.5"/>
      <line id="Línea_74" data-name="Línea 74" y2="1.24" transform="translate(11.923 25.56)" fill="none" stroke="#263238" stroke-linecap="round" stroke-linejoin="round" stroke-width="0.5"/>
      <line id="Línea_75" data-name="Línea 75" y2="0.575" transform="translate(14.978 26.14)" fill="none" stroke="#263238" stroke-linecap="round" stroke-linejoin="round" stroke-width="0.5"/>
      <line id="Línea_76" data-name="Línea 76" y1="0.905" transform="translate(21.003 24.984)" fill="none" stroke="#263238" stroke-linecap="round" stroke-linejoin="round" stroke-width="0.5"/>
      <line id="Línea_77" data-name="Línea 77" y1="1.405" transform="translate(22.323 23.58)" fill="none" stroke="#263238" stroke-linecap="round" stroke-linejoin="round" stroke-width="0.5"/>
      <ellipse id="Elipse_1553" data-name="Elipse 1553" cx="11.085" cy="11.085" rx="11.085" ry="11.085" transform="matrix(0.985, -0.173, 0.173, 0.985, 2.475, 5.307)" fill="#fff" stroke="#263238" stroke-linecap="round" stroke-linejoin="round" stroke-width="0.5"/>
      <ellipse id="Elipse_1554" data-name="Elipse 1554" cx="11.085" cy="11.085" rx="11.085" ry="11.085" transform="matrix(0.985, -0.173, 0.173, 0.985, 2.477, 3.827)" fill="#fff" stroke="#263238" stroke-linecap="round" stroke-linejoin="round" stroke-width="0.5"/>
      <path id="Trazado_33918" data-name="Trazado 33918" d="M382.13,272.5a9.422,9.422,0,0,0,5.445-17.44l-.224-.131" transform="translate(-367.342 -250.263)" fill="#fff" stroke="#263238" stroke-linecap="round" stroke-linejoin="round" stroke-width="0.5"/>
      <path id="Trazado_33919" data-name="Trazado 33919" d="M371.72,293.21a9.41,9.41,0,0,0,3.546,1.29" transform="translate(-361.337 -272.347)" fill="#fff" stroke="#263238" stroke-linecap="round" stroke-linejoin="round" stroke-width="0.5"/>
      <path id="Trazado_33920" data-name="Trazado 33920" d="M374.3,252.753a9.422,9.422,0,0,0-9.956,15.752" transform="translate(-355.204 -248.547)" fill="#fff" stroke="#263238" stroke-linecap="round" stroke-linejoin="round" stroke-width="0.5"/>
      <path id="Trazado_33921" data-name="Trazado 33921" d="M370.333,266.75a.876.876,0,0,1-.042-.567.893.893,0,0,1,.279-.457,1.269,1.269,0,0,1,.47-.245.711.711,0,0,1,.533.055,1.206,1.206,0,0,1,.47.449c.025.038.093.152.2.334s.2.343.288.47a3.3,3.3,0,0,0,.423.482,3.929,3.929,0,0,0,.622.525,2.686,2.686,0,0,0,.529.33,4.086,4.086,0,0,0,.584.233.99.99,0,0,0,.554,0,.677.677,0,0,0,.423-.326.618.618,0,0,0,0-.55,2.116,2.116,0,0,0-.508-.728l-.922-.927c-.338-.368-.605-.673-.8-.91a6.525,6.525,0,0,1-.546-.791,2.086,2.086,0,0,1-.3-.8,2.221,2.221,0,0,1,.042-.791,2.928,2.928,0,0,1,.385-.9,2.34,2.34,0,0,1,2.086-1.176,5.157,5.157,0,0,1,2.983,1.1,5.924,5.924,0,0,1,.846.681,6.409,6.409,0,0,1,.546.592c.118.148.258.355.423.609a1.036,1.036,0,0,1,.195.618.9.9,0,0,1-.169.533,1.223,1.223,0,0,1-.423.334.643.643,0,0,1-.525.03,1.21,1.21,0,0,1-.529-.389,7.886,7.886,0,0,0-1.371-1.362,7.025,7.025,0,0,0-.6-.372,1.514,1.514,0,0,0-.673-.2.5.5,0,0,0-.495.22.614.614,0,0,0-.059.571,2.18,2.18,0,0,0,.525.69l.918.931a12.134,12.134,0,0,1,.893,1.032,3.912,3.912,0,0,1,.529.952,2.019,2.019,0,0,1,.131,1.007,2.772,2.772,0,0,1-.389,1.058,2.729,2.729,0,0,1-1.367,1.219,3.088,3.088,0,0,1-1.8.123,5.69,5.69,0,0,1-1.946-.88,6.435,6.435,0,0,1-2.4-2.814Zm7.971-7.328a.6.6,0,0,1,.423-.309.634.634,0,0,1,.461.085.7.7,0,0,1,.283.385.6.6,0,0,1-.08.508l-1.219,1.989-1.087-.668Zm-5.615,9.469,1.1.673-1.21,1.972a.6.6,0,0,1-.571.317.664.664,0,0,1-.554-.33.588.588,0,0,1,.03-.66Z" transform="translate(-360.496 -252.669)" fill="#263238"/>
      <line id="Línea_78" data-name="Línea 78" y2="1.405" transform="translate(6.148 19.036)" fill="none" stroke="#263238" stroke-linecap="round" stroke-linejoin="round" stroke-width="0.5"/>
      <line id="Línea_79" data-name="Línea 79" y2="1.485" transform="translate(7.138 20.44)" fill="none" stroke="#263238" stroke-linecap="round" stroke-linejoin="round" stroke-width="0.5"/>
      <line id="Línea_80" data-name="Línea 80" y2="1.405" transform="translate(9.118 22.09)" fill="none" stroke="#263238" stroke-linecap="round" stroke-linejoin="round" stroke-width="0.5"/>
      <line id="Línea_81" data-name="Línea 81" y2="1.235" transform="translate(11.923 23.495)" fill="none" stroke="#263238" stroke-linecap="round" stroke-linejoin="round" stroke-width="0.5"/>
      <line id="Línea_82" data-name="Línea 82" y2="0.58" transform="translate(14.978 24.071)" fill="none" stroke="#263238" stroke-linecap="round" stroke-linejoin="round" stroke-width="0.5"/>
      <line id="Línea_83" data-name="Línea 83" y1="0.91" transform="translate(21.003 22.915)" fill="none" stroke="#263238" stroke-linecap="round" stroke-linejoin="round" stroke-width="0.5"/>
      <line id="Línea_84" data-name="Línea 84" y1="1.4" transform="translate(22.323 21.515)" fill="none" stroke="#263238" stroke-linecap="round" stroke-linejoin="round" stroke-width="0.5"/>
      <ellipse id="Elipse_1555" data-name="Elipse 1555" cx="11.085" cy="11.085" rx="11.085" ry="11.085" transform="matrix(0.171, -0.985, 0.985, 0.171, 21.338, 50.7)" fill="#fff" stroke="#263238" stroke-linecap="round" stroke-linejoin="round" stroke-width="0.5"/>
      <ellipse id="Elipse_1556" data-name="Elipse 1556" cx="11.085" cy="11.085" rx="11.085" ry="11.085" transform="matrix(0.914, -0.406, 0.406, 0.914, 19.532, 34.568)" fill="#fff" stroke="#263238" stroke-linecap="round" stroke-linejoin="round" stroke-width="0.5"/>
      <ellipse id="Elipse_1557" data-name="Elipse 1557" cx="9.387" cy="9.387" rx="9.387" ry="9.387" transform="translate(21.402 46.426) rotate(-72.474)" fill="#fff" stroke="#263238" stroke-linecap="round" stroke-linejoin="round" stroke-width="0.5"/>
      <path id="Trazado_33922" data-name="Trazado 33922" d="M418.5,334.458a.884.884,0,0,1-.423-.364.871.871,0,0,1-.135-.512,1.206,1.206,0,0,1,.148-.516.728.728,0,0,1,.4-.347,1.189,1.189,0,0,1,.652-.025,3.092,3.092,0,0,1,.381.085c.207.051.389.089.537.114a4.022,4.022,0,0,0,.63.038,3.78,3.78,0,0,0,.808-.089,2.63,2.63,0,0,0,.6-.156,3.751,3.751,0,0,0,.571-.262,1.007,1.007,0,0,0,.4-.389.69.69,0,0,0,.055-.537.618.618,0,0,0-.4-.377,2.082,2.082,0,0,0-.876-.135h-1.324c-.5,0-.905-.021-1.21-.047a6.014,6.014,0,0,1-.948-.148,2.191,2.191,0,0,1-.787-.326,2.218,2.218,0,0,1-.542-.575,2.962,2.962,0,0,1-.389-.9,2.348,2.348,0,0,1,.592-2.323,5.14,5.14,0,0,1,2.856-1.4,6.441,6.441,0,0,1,1.07-.135,6.54,6.54,0,0,1,.8,0c.19.021.423.055.74.11a1.062,1.062,0,0,1,.58.288.846.846,0,0,1,.267.487,1.18,1.18,0,0,1-.034.529.66.66,0,0,1-.347.4,1.181,1.181,0,0,1-.643.114,7.986,7.986,0,0,0-1.929.055,5.856,5.856,0,0,0-.685.178,1.535,1.535,0,0,0-.613.347.5.5,0,0,0-.182.508.618.618,0,0,0,.372.423,2.247,2.247,0,0,0,.846.1l1.307-.025a11.268,11.268,0,0,1,1.362.068,3.929,3.929,0,0,1,1.054.267,2.115,2.115,0,0,1,.821.6,2.882,2.882,0,0,1-.732,4.231,5.6,5.6,0,0,1-1.98.8,6.448,6.448,0,0,1-3.673-.152Zm.186-10.827a.605.605,0,0,1,.063-.52.655.655,0,0,1,.385-.275.681.681,0,0,1,.47.059.6.6,0,0,1,.313.423l.6,2.255-1.235.33Zm3,10.577,1.244-.33.6,2.238a.6.6,0,0,1-.169.635.66.66,0,0,1-.618.174.588.588,0,0,1-.457-.478Z" transform="translate(-387.202 -289.427)" fill="#263238"/>
      <line id="Línea_85" data-name="Línea 85" y2="1.405" transform="translate(24.997 46.41)" fill="none" stroke="#263238" stroke-linecap="round" stroke-linejoin="round" stroke-width="0.5"/>
      <line id="Línea_86" data-name="Línea 86" y2="1.485" transform="translate(25.991 47.815)" fill="none" stroke="#263238" stroke-linecap="round" stroke-linejoin="round" stroke-width="0.5"/>
      <line id="Línea_87" data-name="Línea 87" y2="1.4" transform="translate(27.972 49.465)" fill="none" stroke="#263238" stroke-linecap="round" stroke-linejoin="round" stroke-width="0.5"/>
      <line id="Línea_88" data-name="Línea 88" y2="1.24" transform="translate(30.777 50.865)" fill="none" stroke="#263238" stroke-linecap="round" stroke-linejoin="round" stroke-width="0.5"/>
      <line id="Línea_89" data-name="Línea 89" y2="0.575" transform="translate(33.831 51.445)" fill="none" stroke="#263238" stroke-linecap="round" stroke-linejoin="round" stroke-width="0.5"/>
      <line id="Línea_90" data-name="Línea 90" y1="0.905" transform="translate(39.856 50.29)" fill="none" stroke="#263238" stroke-linecap="round" stroke-linejoin="round" stroke-width="0.5"/>
      <line id="Línea_91" data-name="Línea 91" y1="1.405" transform="translate(41.176 48.885)" fill="none" stroke="#263238" stroke-linecap="round" stroke-linejoin="round" stroke-width="0.5"/>
      <path id="Trazado_33923" data-name="Trazado 33923" d="M422.255,328.16a11.085,11.085,0,1,0-15.232,3.651,11.085,11.085,0,0,0,15.232-3.651Z" transform="translate(-378.646 -282.765)" fill="#fff" stroke="#263238" stroke-linecap="round" stroke-linejoin="round" stroke-width="0.5"/>
      <ellipse id="Elipse_1558" data-name="Elipse 1558" cx="11.085" cy="11.085" rx="11.085" ry="11.085" transform="translate(22.14 48.176) rotate(-84.87)" fill="#fff" stroke="#263238" stroke-linecap="round" stroke-linejoin="round" stroke-width="0.5"/>
      <path id="Trazado_33924" data-name="Trazado 33924" d="M444.029,327.538A9.422,9.422,0,0,0,441,316" transform="translate(-401.304 -285.494)" fill="#fff" stroke="#263238" stroke-linecap="round" stroke-linejoin="round" stroke-width="0.5"/>
      <path id="Trazado_33925" data-name="Trazado 33925" d="M418.68,312.434a9.422,9.422,0,1,0,4.29,13.827" transform="translate(-380.905 -283.02)" fill="#fff" stroke="#263238" stroke-linecap="round" stroke-linejoin="round" stroke-width="0.5"/>
      <path id="Trazado_33926" data-name="Trazado 33926" d="M418.5,329.522a.907.907,0,0,1-.558-.876,1.189,1.189,0,0,1,.148-.512.711.711,0,0,1,.4-.347,1.227,1.227,0,0,1,.652-.03,3.1,3.1,0,0,1,.381.085c.207.051.389.089.537.114a3.488,3.488,0,0,0,.63.042,4.081,4.081,0,0,0,.808-.093,2.848,2.848,0,0,0,.6-.152,4.229,4.229,0,0,0,.571-.262,1.037,1.037,0,0,0,.4-.389.69.69,0,0,0,.055-.537.6.6,0,0,0-.4-.377,2.081,2.081,0,0,0-.876-.135h-1.324c-.5,0-.905-.021-1.21-.047a6.577,6.577,0,0,1-.948-.152,2.052,2.052,0,0,1-.787-.326,2.153,2.153,0,0,1-.542-.575,2.927,2.927,0,0,1-.389-.9,2.348,2.348,0,0,1,.592-2.323,5.14,5.14,0,0,1,2.856-1.4,6.025,6.025,0,0,1,1.07-.135,5.78,5.78,0,0,1,.8,0,5.14,5.14,0,0,1,.74.11,1.058,1.058,0,0,1,.58.283.876.876,0,0,1,.267.491,1.163,1.163,0,0,1-.034.525.669.669,0,0,1-.347.423,1.269,1.269,0,0,1-.643.114,7.776,7.776,0,0,0-1.929.051q-.33.072-.685.178a1.544,1.544,0,0,0-.613.351.5.5,0,0,0-.182.508.609.609,0,0,0,.372.423,2.167,2.167,0,0,0,.846.1l1.307-.021a10.548,10.548,0,0,1,1.362.063,4.1,4.1,0,0,1,1.054.271,2.023,2.023,0,0,1,.821.6,2.875,2.875,0,0,1-.732,4.227,5.53,5.53,0,0,1-1.98.8A6.377,6.377,0,0,1,418.5,329.522Zm.186-10.827a.605.605,0,0,1,.063-.52.643.643,0,0,1,.846-.212.6.6,0,0,1,.313.423l.6,2.255-1.235.326Zm3,10.577,1.244-.33.6,2.234a.6.6,0,0,1-.169.635.66.66,0,0,1-.618.173.575.575,0,0,1-.457-.474Z" transform="translate(-387.202 -286.581)" fill="#263238"/>
      <line id="Línea_92" data-name="Línea 92" y2="1.405" transform="translate(24.997 44.32)" fill="none" stroke="#263238" stroke-linecap="round" stroke-linejoin="round" stroke-width="0.5"/>
      <line id="Línea_93" data-name="Línea 93" y2="1.485" transform="translate(25.991 45.725)" fill="none" stroke="#263238" stroke-linecap="round" stroke-linejoin="round" stroke-width="0.5"/>
      <line id="Línea_94" data-name="Línea 94" y2="1.405" transform="translate(27.972 47.375)" fill="none" stroke="#263238" stroke-linecap="round" stroke-linejoin="round" stroke-width="0.5"/>
      <line id="Línea_95" data-name="Línea 95" y2="1.235" transform="translate(30.777 48.779)" fill="none" stroke="#263238" stroke-linecap="round" stroke-linejoin="round" stroke-width="0.5"/>
      <line id="Línea_96" data-name="Línea 96" y2="0.58" transform="translate(33.831 49.355)" fill="none" stroke="#263238" stroke-linecap="round" stroke-linejoin="round" stroke-width="0.5"/>
      <line id="Línea_97" data-name="Línea 97" y1="0.91" transform="translate(39.856 48.2)" fill="none" stroke="#263238" stroke-linecap="round" stroke-linejoin="round" stroke-width="0.5"/>
      <line id="Línea_98" data-name="Línea 98" y1="1.4" transform="translate(41.176 46.799)" fill="none" stroke="#263238" stroke-linecap="round" stroke-linejoin="round" stroke-width="0.5"/>
      <g id="Grupo_16246" data-name="Grupo 16246" transform="translate(0.849 32.239)">
        <ellipse id="Elipse_1559" data-name="Elipse 1559" cx="11.085" cy="11.085" rx="11.085" ry="11.085" transform="translate(0 12.526) rotate(-34.4)" fill="#fff" stroke="#263238" stroke-linecap="round" stroke-linejoin="round" stroke-width="0.5"/>
        <ellipse id="Elipse_1560" data-name="Elipse 1560" cx="11.085" cy="11.085" rx="11.085" ry="11.085" transform="translate(2.017 5.799) rotate(-13.65)" fill="#fff" stroke="#263238" stroke-linecap="round" stroke-linejoin="round" stroke-width="0.5"/>
        <path id="Trazado_33927" data-name="Trazado 33927" d="M395.419,349.79a9.418,9.418,0,0,0,.6-16.4,8.949,8.949,0,0,0-.905-.491" transform="translate(-375.679 -327.483)" fill="#fff" stroke="#263238" stroke-linecap="round" stroke-linejoin="round" stroke-width="0.5"/>
        <path id="Trazado_33928" data-name="Trazado 33928" d="M385.38,374.733a9.5,9.5,0,0,0,2.962-.423" transform="translate(-370.066 -351.372)" fill="#fff" stroke="#263238" stroke-linecap="round" stroke-linejoin="round" stroke-width="0.5"/>
        <path id="Trazado_33929" data-name="Trazado 33929" d="M374,372a9.385,9.385,0,0,0,3.474,1.269" transform="translate(-363.501 -350.04)" fill="#fff" stroke="#263238" stroke-linecap="round" stroke-linejoin="round" stroke-width="0.5"/>
        <path id="Trazado_33930" data-name="Trazado 33930" d="M375.409,331.145a9.427,9.427,0,0,0-9.892,15.071" transform="translate(-357.353 -326.253)" fill="#fff" stroke="#263238" stroke-linecap="round" stroke-linejoin="round" stroke-width="0.5"/>
        <path id="Trazado_33931" data-name="Trazado 33931" d="M372.576,345.566a.922.922,0,0,1-.042-.571.88.88,0,0,1,.279-.453,1.243,1.243,0,0,1,.474-.25.744.744,0,0,1,.529.055,1.163,1.163,0,0,1,.47.453c.025.038.093.148.2.334s.2.343.284.47a4.759,4.759,0,0,0,1.049,1.007,2.842,2.842,0,0,0,.525.326,3.638,3.638,0,0,0,.584.233.994.994,0,0,0,.554,0,.7.7,0,0,0,.423-.33.609.609,0,0,0,0-.546,2.069,2.069,0,0,0-.537-.728l-.91-.96c-.338-.368-.605-.668-.8-.91a5.922,5.922,0,0,1-.546-.791,2.209,2.209,0,0,1-.3-.8,2.3,2.3,0,0,1,.042-.787,2.992,2.992,0,0,1,.385-.9,2.344,2.344,0,0,1,2.09-1.172,5.178,5.178,0,0,1,2.983,1.1,6.13,6.13,0,0,1,.846.681,5.425,5.425,0,0,1,.546.588,7.257,7.257,0,0,1,.423.614,1.049,1.049,0,0,1,.19.614.846.846,0,0,1-.169.533,1.177,1.177,0,0,1-.423.338.639.639,0,0,1-.529.025,1.2,1.2,0,0,1-.529-.385A8.008,8.008,0,0,0,379.3,342c-.186-.127-.385-.254-.605-.377a1.455,1.455,0,0,0-.673-.2.491.491,0,0,0-.491.216.6.6,0,0,0-.063.571,2.255,2.255,0,0,0,.525.694l.918.931a10.89,10.89,0,0,1,.893,1.032,3.968,3.968,0,0,1,.529.948,2.034,2.034,0,0,1,.131,1.011,2.862,2.862,0,0,1-3.554,2.395,5.632,5.632,0,0,1-1.951-.88A6.431,6.431,0,0,1,372.576,345.566Zm7.971-7.332a.618.618,0,0,1,.423-.309.643.643,0,0,1,.461.089.66.66,0,0,1,.279.385.6.6,0,0,1-.076.5l-1.219,2.01-1.087-.668Zm-5.6,9.469,1.1.673-1.214,1.972a.592.592,0,0,1-.575.317.669.669,0,0,1-.554-.33.6.6,0,0,1,.03-.66Z" transform="translate(-362.639 -330.376)" fill="#263238"/>
        <line id="Línea_99" data-name="Línea 99" y2="1.4" transform="translate(6.247 20.145)" fill="none" stroke="#263238" stroke-linecap="round" stroke-linejoin="round" stroke-width="0.5"/>
        <line id="Línea_100" data-name="Línea 100" y2="1.489" transform="translate(7.237 21.546)" fill="none" stroke="#263238" stroke-linecap="round" stroke-linejoin="round" stroke-width="0.5"/>
        <line id="Línea_101" data-name="Línea 101" y2="1.4" transform="translate(9.217 23.2)" fill="none" stroke="#263238" stroke-linecap="round" stroke-linejoin="round" stroke-width="0.5"/>
        <line id="Línea_102" data-name="Línea 102" y2="1.24" transform="translate(12.022 24.6)" fill="none" stroke="#263238" stroke-linecap="round" stroke-linejoin="round" stroke-width="0.5"/>
        <line id="Línea_103" data-name="Línea 103" y2="0.575" transform="translate(15.077 25.18)" fill="none" stroke="#263238" stroke-linecap="round" stroke-linejoin="round" stroke-width="0.5"/>
        <line id="Línea_104" data-name="Línea 104" y1="0.905" transform="translate(21.102 24.025)" fill="none" stroke="#263238" stroke-linecap="round" stroke-linejoin="round" stroke-width="0.5"/>
        <line id="Línea_105" data-name="Línea 105" y1="1.405" transform="translate(22.422 22.62)" fill="none" stroke="#263238" stroke-linecap="round" stroke-linejoin="round" stroke-width="0.5"/>
      </g>
    </g>
  </g>
</svg>
