<svg id="Grupo_44480" data-name="Grupo 44480" xmlns="http://www.w3.org/2000/svg" width="44.26" height="56.182" viewBox="0 0 44.26 56.182">
  <path id="Trazado_49636" data-name="Trazado 49636" d="M115.919,113.453c2.18-4.511,5.146-9.33,10.538-11.268a6.806,6.806,0,0,1,7.239,2.3c3.231,6.991,2.462,14.831-.071,21.894A56.957,56.957,0,0,0,115.919,113.453Z" transform="translate(-109.105 -101.875)" fill="#014b8e"/>
  <path id="Trazado_49637" data-name="Trazado 49637" d="M134.505,104.175c6.153,2.761,10.565,7.8,14.768,12.524,3.23,3.508,5.33,8.013,4.827,12.609-.344,3.909-2.673,7.392-5.322,10.431a80.663,80.663,0,0,1-18.9,15.529c-2.922,1.671-6.507,3.131-10.028,2.174-4.8-1.076-8-4.866-9.939-8.7,10.44-5.139,20.152-12.532,24.52-22.678C136.968,119.006,137.736,111.166,134.505,104.175Z" transform="translate(-109.914 -101.565)" fill="#f57d31"/>
</svg>
