<svg xmlns="http://www.w3.org/2000/svg" xmlns:xlink="http://www.w3.org/1999/xlink" viewBox="0 0 636.15 546.43"><defs><style>.cls-1,.cls-13,.cls-18,.cls-21,.cls-24,.cls-9{fill:none;}.cls-11,.cls-15,.cls-16,.cls-2,.cls-3,.cls-6,.cls-7,.cls-8{fill:#fff;}.cls-12,.cls-14,.cls-15,.cls-18,.cls-2,.cls-21,.cls-24,.cls-3,.cls-6,.cls-7,.cls-8,.cls-9{stroke:#263238;}.cls-2{stroke-miterlimit:10;}.cls-3{stroke-miterlimit:10;}.cls-12,.cls-4{fill:#263238;}.cls-5{fill:#b5b5b5;}.cls-6{stroke-miterlimit:10;}.cls-7{stroke-miterlimit:10;}.cls-8{stroke-miterlimit:10;}.cls-12,.cls-13,.cls-14,.cls-15,.cls-18,.cls-21,.cls-24,.cls-9{stroke-linecap:round;stroke-linejoin:round;}.cls-9{stroke-width:2px;}.cls-10,.cls-14{fill:#c7e8e1;}.cls-11{opacity:0.5;}.cls-11,.cls-20{isolation:isolate;}.cls-13{stroke:#fff;}.cls-17{clip-path:url(#clip-path);}.cls-19{clip-path:url(#clip-path-2);}.cls-20{opacity:0.3;}.cls-21{stroke-width:1px;}.cls-22{clip-path:url(#clip-path-3);}.cls-23{clip-path:url(#clip-path-4);}</style><clipPath id="clip-path"><path class="cls-1" d="M480.32,187.36c-4.05-.71-7.35-1.12-9.08-2.33-3.25-2.28-2.71-19.3-2.17-28.35L466.22,154,453,165.8s-1.79,14.76-3.08,17.89c-.52,1.2-3.31,2.08-6.95,2.85C453.34,219.17,468.13,219.19,480.32,187.36Z"/></clipPath><clipPath id="clip-path-2"><path class="cls-1" d="M439.73,211c115.62-16.73,143.4,154.79,28.43,175.43C352.54,403.19,324.76,231.68,439.73,211Z"/></clipPath><clipPath id="clip-path-3"><path class="cls-1" d="M184.23,182.32l8.63,37,15.41-34.88C201.55,183.86,190.85,183.67,184.23,182.32Z"/></clipPath><clipPath id="clip-path-4"><path class="cls-1" d="M118.36,59.53C167.6-56,340.7,14.27,295.42,131.43,246.18,247,73.08,176.69,118.36,59.53Z"/></clipPath></defs><g id="Capa_2" data-name="Capa 2"><g id="Capa_1-2" data-name="Capa 1"><g id="Enmascarar_grupo_67" data-name="Enmascarar grupo 67"><g id="Smiley_face-bro" data-name="Smiley face-bro"><g id="freepik--smiley-faces--inject-46"><path id="Trazado_49648" data-name="Trazado 49648" class="cls-2" d="M419.17,37.74a23,23,0,0,1,11.73,5.59c5.41,4.87,10.4-7.57,1.45-10.11A11.49,11.49,0,0,0,419.17,37.74Z"/><path id="Trazado_49649" data-name="Trazado 49649" class="cls-2" d="M413.16,37.17a23.08,23.08,0,0,1,11.2-6.58c7.08-1.75-.44-12.86-7.56-6.88a11.5,11.5,0,0,0-3.64,13.45Z"/><path id="Trazado_49650" data-name="Trazado 49650" class="cls-2" d="M330.62,66.09a23.07,23.07,0,0,0-5.43,11.8c-1,7.23-12.83.86-7.6-6.83A11.5,11.5,0,0,1,330.62,66.09Z"/><path id="Trazado_49651" data-name="Trazado 49651" class="cls-2" d="M334.91,61.79a23.13,23.13,0,0,0-12.82,2.14c-6.55,3.19-7.9-10.15,1.4-10.12A11.5,11.5,0,0,1,334.91,61.79Z"/><path id="Elipse_3670" data-name="Elipse 3670" class="cls-3" d="M344.22,54.28c33.55-53.2,113.5-4.66,81.79,49.65C392.46,157.13,312.5,108.58,344.22,54.28Z"/><path id="Trazado_49652" data-name="Trazado 49652" class="cls-4" d="M348.06,71a1.85,1.85,0,0,1-1.36-3.41l11.91-6.42-8-.28c-2.6.14-2.47-4,.12-3.68l14.79.5a1.87,1.87,0,0,1,1.78,1.93c.82,1.68-18.45,10.6-19.28,11.36Z"/><path id="Trazado_49653" data-name="Trazado 49653" class="cls-4" d="M411.82,53.42c-.38.19-19.46.62-19.89.7A1.85,1.85,0,0,1,390,52.33c-.94-1.61,13.33-9,14-9.84,1.75-1.63,4.29,1.16,2.48,2.75.11,0-7.67,4.83-7.84,5l12.59-.4A1.85,1.85,0,0,1,411.82,53.42Z"/><path id="Trazado_49654" data-name="Trazado 49654" class="cls-4" d="M347.27,79.28c22.16,42.63,73.17,28.52,70.44-19.37A190.47,190.47,0,0,0,347.27,79.28Z"/><path id="Trazado_49655" data-name="Trazado 49655" class="cls-5" d="M412.29,83.89a48,48,0,0,0-47.77,13.4C381.53,109.13,403.78,102.81,412.29,83.89Z"/><path id="Elipse_3671" data-name="Elipse 3671" class="cls-6" d="M2.49,239.4C21,179.29,110.81,205.24,94.4,265.93,75.93,326-13.92,300.09,2.49,239.4Z"/><path id="Trazado_49656" data-name="Trazado 49656" class="cls-4" d="M24,223.62a1.86,1.86,0,0,1,1-3.54l13.36,2.14-6.17-5.07a1.86,1.86,0,0,1,2.35-2.85l11.43,9.41A1.86,1.86,0,0,1,44.48,227l-20-3.26A1.86,1.86,0,0,1,24,223.62Z"/><path id="Trazado_49657" data-name="Trazado 49657" class="cls-4" d="M85.27,248.63c-.4-.12-15.83-11.34-16.21-11.56a1.84,1.84,0,0,1-.43-2.58c.23-1.86,16,1,17.1.78a1.84,1.84,0,0,1,1.67,2c0,3.33-8.92.51-10.61.84L87,245.46A1.83,1.83,0,0,1,85.27,248.63Z"/><path id="Trazado_49658" data-name="Trazado 49658" class="cls-4" d="M54.46,272.74c-30.94,2.26-43.63-41.6-31.74-30.51h0c3.47,18.58,24.44,33,51,22.35a2.32,2.32,0,0,1,3,1.37C77.28,271.85,59,272.27,54.46,272.74Z"/><path id="Elipse_3672" data-name="Elipse 3672" class="cls-7" d="M262.66,326.78c49.72-48,122.43,24.67,74.38,74.37C287.32,449.2,214.61,376.48,262.66,326.78Z"/><path id="Trazado_49659" data-name="Trazado 49659" class="cls-4" d="M270.21,381.18s33.81-19.31,66.4-24C348.23,398.8,291.38,419.65,270.21,381.18Z"/><path id="Trazado_49660" data-name="Trazado 49660" class="cls-4" d="M276.94,366.31c-3.21.83-8.93-14.84-10.45-16.49-2-3.55,3.7-6.48,5.49-2.83l7.7,14.82a3.09,3.09,0,0,1-2.74,4.5Z"/><path id="Trazado_49661" data-name="Trazado 49661" class="cls-4" d="M317.76,351.63a3.09,3.09,0,0,1-3.08-2.44l-3.57-16.87c-.72-3.77,5.15-5,6-1.28l3.59,16.88a3.09,3.09,0,0,1-3.08,3.71Z"/><path id="Trazado_49662" data-name="Trazado 49662" class="cls-5" d="M323.08,393.8c-4.7-12.21-28.1-9-34.21,3,10.92,5.94,24.2,3.79,34.21-3Z"/><path id="Elipse_3673" data-name="Elipse 3673" class="cls-8" d="M562.57,131c64-26.2,104.57,68.28,41.52,96.64C540.11,253.81,499.53,159.32,562.57,131Z"/><path id="Trazado_49663" data-name="Trazado 49663" class="cls-9" d="M558.83,179.09s28,21.94,56.75,2.28"/><path id="Trazado_49664" data-name="Trazado 49664" class="cls-4" d="M605,163.12c.05,7.62-5.73,7.61-5.69,0S605.11,155.5,605,163.12Z"/><path id="Trazado_49665" data-name="Trazado 49665" class="cls-4" d="M577.8,162c.06,7.62-5.74,7.62-5.67,0S577.86,154.38,577.8,162Z"/></g><g id="freepik--character-2--inject-46"><path id="Elipse_3674" data-name="Elipse 3674" class="cls-10" d="M455.39,487.7c161.55.29,161.54,57.72,0,58C293.83,545.42,293.84,488,455.39,487.7Z"/><path id="Elipse_3675" data-name="Elipse 3675" class="cls-11" d="M455.39,487.7c161.55.29,161.54,57.72,0,58C293.83,545.42,293.84,488,455.39,487.7Z"/><path id="Trazado_49666" data-name="Trazado 49666" class="cls-12" d="M440.39,133.32c-28.26-8.13,4.93-30.26,26.32-30.4,44.55,5.22,17.63,52.21,42.48,63.5C520.38,170,528,191.89,521.26,200s-6.25,8,.45,15.19.89,19.68-3.58,22.36-17.89,6.7-47.84,4-47.77-30-49.19-41.13,8.95-18.79,12.53-23.7-2.68-8.94-2.24-14.32C436.64,148.13,443.93,152.81,440.39,133.32Z"/><path id="Trazado_49667" data-name="Trazado 49667" class="cls-13" d="M461.6,120.68a60.81,60.81,0,0,0,18,33.4c15.92,15.41,39.51,29.78,38,40.57s-6.17,9.75-6.17,9.75"/><path id="Trazado_49668" data-name="Trazado 49668" class="cls-13" d="M463.14,113.49c-2.5,3.07-26.47,16.79-33.43,10"/><path id="Trazado_49669" data-name="Trazado 49669" class="cls-14" d="M393.44,501s6.66,8.74,14.11,12.85,20.8,1.28,16.95-8.47-10-14.9-14.63-16.7S393.21,491.53,393.44,501Z"/><path id="Trazado_49670" data-name="Trazado 49670" class="cls-15" d="M402.44,510.54v.23c6.4,7.06,25.82,7.13,21.57-5.39C411.93,498,402.44,510.54,402.44,510.54Z"/><path id="Trazado_49671" data-name="Trazado 49671" class="cls-15" d="M407.55,513.89c7,3.85,19.14,1.54,17.48-6.72-9.47,11.61-26.42-3.36-30.82-10.26a10.21,10.21,0,0,0-.77,4.13S400.1,509.77,407.55,513.89Z"/><path id="Trazado_49672" data-name="Trazado 49672" class="cls-14" d="M505.07,500.69s-6.66,8.74-14.1,12.86-20.8,1.27-17-8.48,10-14.9,14.63-16.69S505.3,491.19,505.07,500.69Z"/><path id="Trazado_49673" data-name="Trazado 49673" class="cls-15" d="M495.59,510.2l-.08.25c-6.37,7.12-25.76,7.07-21.49-5.39C486.08,497.63,495.59,510.2,495.59,510.2Z"/><path id="Trazado_49674" data-name="Trazado 49674" class="cls-15" d="M491,513.62c-7,3.86-19.16,1.62-17.48-6.71,9.46,11.61,26.4-3.36,30.82-10.25a10.51,10.51,0,0,1,.75,4.11S498.41,509.43,491,513.62Z"/><path id="Trazado_49675" data-name="Trazado 49675" class="cls-15" d="M452.92,165.8c-2.7,25.87-2.4,17.52-28.12,24.59C403,201,378.59,227.56,375.17,250.82c0,3.12,9.38-8.94,17.87-17.43s27.27-19.23,27.27-19.23c.57,6,9.87,39.6,7.63,47.72-27,42.94-24.9,99.65-19.23,140.39,0,0-10.28,20.13-11.17,42.49-.31,28.52-8.5,47.81-4,56.33,2.24.45,4-5.8,9.4-7.15s12.51,2.24,13.41-1.34,0-10.78.89-20.12,15.66-47.85,16.55-60.81c1.72-15.14,10.6-79,16.12-82.67,8-15,2.47,69.7,6.26,72.43,2.68,8.49,23.8,65.53,26.49,72.25s-3.09,14.75-1.35,18.32,6.7,2.24,11.18,2.24,9.12,6.56,12.7,6.56c14.58-4.71-12.78-69-12-87.34a126.93,126.93,0,0,0-4-24.65s5.81-63.95,4.47-77.8c-12.45-61.29-16.91-33.13-4.91-93.34,0,0,24.65,13.87,33.08,25s14.32,10.79,13.42,1.79-21.91-35.32-33.1-46.95c-32.79-25.1-35.27,8.71-32.6-46.51Z"/><path id="Trazado_49676" data-name="Trazado 49676" class="cls-12" d="M481.2,491.9c1.78,3.57,6.7,2.23,11.17,2.23s9.12,6.56,12.7,6.56c14.53-4.76-12.67-68.88-11.91-87.23a126.91,126.91,0,0,0-4-24.65c-.11-3.21,7.57-70.49,3.14-85.84l-79.2-7.7c-13.58,23.78-5.37,101.52-4.42,106.88,0,0-10.28,20.13-11.18,42.49-.3,28.53-8.5,47.8-4,56.33,2.23.45,4-5.81,9.4-7.15s12.51,2.24,13.4-1.34,0-10.79.9-20.12,15.65-47.85,16.55-60.81c1.72-15.13,10.59-79,16.11-82.67,8-15,2.47,69.74,6.26,72.42,2.68,8.49,23.81,65.54,26.49,72.26S479.41,488.32,481.2,491.9Z"/><path id="Trazado_49677" data-name="Trazado 49677" class="cls-15" d="M502.09,197.55c-28.09-22.9-35.91,5.74-33-40.87L466.22,154,453,165.8c-2.79,26-2.23,17.42-28.12,24.59-7.15,2.68-21.85,15.21-31.27,24.13l9.25,10.79c8.4-6,17.52-11.25,17.52-11.25,10.5,56.89,13.82,27.53-9.23,87.14,12.82,5.9,38.06,12.6,82.27,7.29C479.52,248.07,478,275,488.76,217.64c0,0,7.7,4.36,16,10.15l12.77-12.32C512,208.52,506.36,202,502.09,197.55Z"/><path id="Trazado_49678" data-name="Trazado 49678" class="cls-16" d="M480.32,187.36c-4.05-.71-7.35-1.12-9.08-2.33-3.25-2.28-2.71-19.3-2.17-28.35L466.22,154,453,165.8s-1.79,14.76-3.08,17.89c-.52,1.2-3.31,2.08-6.95,2.85C453.34,219.17,468.13,219.19,480.32,187.36Z"/><g class="cls-17"><g id="Grupo_44626" data-name="Grupo 44626"><path id="Trazado_49679" data-name="Trazado 49679" class="cls-10" d="M469,158.31a27.8,27.8,0,0,0-16.06,7.49s-.74,6-1.54,11.17c3.08-1.11,12-4.62,17.35-9.69C468.72,164.09,468.84,161,469,158.31Z"/><path id="Trazado_49680" data-name="Trazado 49680" class="cls-11" d="M469,158.31a27.8,27.8,0,0,0-16.06,7.49s-.74,6-1.54,11.17c3.08-1.11,12-4.62,17.35-9.69C468.72,164.09,468.84,161,469,158.31Z"/></g></g><path id="Trazado_49682" data-name="Trazado 49682" class="cls-18" d="M480.32,187.36c-4.05-.71-7.35-1.12-9.08-2.33-3.25-2.28-2.71-19.3-2.17-28.35L466.22,154,453,165.8s-1.79,14.76-3.08,17.89c-.52,1.2-3.31,2.08-6.95,2.85C453.34,219.17,468.13,219.19,480.32,187.36Z"/><path id="Elipse_3676" data-name="Elipse 3676" class="cls-10" d="M439.73,211c115.62-16.73,143.4,154.79,28.43,175.43C352.54,403.19,324.76,231.68,439.73,211Z"/><g class="cls-19"><g id="Grupo_44627" data-name="Grupo 44627"><path id="Trazado_49683" data-name="Trazado 49683" class="cls-20" d="M480.69,372.78C398.23,375.47,360,262.27,426.43,214.07c-131.48,46.61-35.23,234.42,79.38,155A88,88,0,0,1,480.69,372.78Z"/></g></g><path id="Elipse_3678" data-name="Elipse 3678" class="cls-21" d="M439.73,211c115.62-16.73,143.4,154.79,28.43,175.43C352.54,403.19,324.76,231.68,439.73,211Z"/><path id="Trazado_49684" data-name="Trazado 49684" class="cls-4" d="M389.37,266.63c-3.93.06-4.59-5.94-.75-6.75l24.43-5.62-14.11-4.43c-4.26-1.25-2.19-7.91,2-6.53l26.2,8.18a3.42,3.42,0,0,1,2.28,4.27c1.85,3.08-38.17,9.87-39.3,10.79a3.46,3.46,0,0,1-.78.09Z"/><path id="Trazado_49685" data-name="Trazado 49685" class="cls-4" d="M511.88,266.32a3.57,3.57,0,0,1-.8-.09L476,257.83c-3.34-.7-3.46-5.75-.16-6.61l27.5-8.19c4.19-1.24,6.15,5.33,1.94,6.57L490,254.22l22.7,5.47c3.88.82,3.15,6.86-.8,6.75Z"/><path id="Trazado_49686" data-name="Trazado 49686" class="cls-4" d="M383.86,280.79c18.65,87,116.75,87,135.4,0A353.48,353.48,0,0,0,383.86,280.79Z"/><path id="Trazado_49687" data-name="Trazado 49687" class="cls-5" d="M497.7,321c-22.84-16.56-69.29-16.47-91.83.48C430.37,351,473.29,350.64,497.7,321Z"/><path id="Trazado_49688" data-name="Trazado 49688" class="cls-15" d="M440,128.39c-6.8,16.68-9.86,23.71-1.34,41.59,9.32,11.42,24.41-4.6,32.19-12.08,9.31-4.54-.79-13.06-8-25-6.26-9.85-8.94-9.38-8.94-9.38Z"/><path id="Trazado_49689" data-name="Trazado 49689" class="cls-18" d="M444.32,139.82s-4.62,6.74-4.9,7.7S443.1,150,443.1,150"/><path id="Trazado_49690" data-name="Trazado 49690" class="cls-18" d="M452,139.82s4.29-2.14,6.74,3.09"/><path id="Trazado_49691" data-name="Trazado 49691" class="cls-18" d="M442.18,138.59a3.32,3.32,0,0,0-5.21-.31"/><path id="Trazado_49692" data-name="Trazado 49692" class="cls-18" d="M454.11,132.16s4.62-1.21,7,5.83"/><path id="Trazado_49693" data-name="Trazado 49693" class="cls-18" d="M444.92,133.09a4.07,4.07,0,0,0-6.42,1.83"/><path id="Trazado_49694" data-name="Trazado 49694" class="cls-4" d="M440.35,154.2s5.5,2.14,12.54-1.83C451.83,155,441.54,163.8,440.35,154.2Z"/><path id="Trazado_49695" data-name="Trazado 49695" class="cls-15" d="M390.54,217.84C362.64,240,366,252.31,366.92,286.38c-.38,7.35,4.62,15.49,7,17s2.71-1.17,2.31-3.88-.38-16.64-.38-16.64c3.52,11.35,5.83,10.72,2.71-2.65-1.56-5.36-5.42-13.16-5-14.72s12.79-24.78,14.72-32.14"/><path id="Trazado_49696" data-name="Trazado 49696" class="cls-18" d="M374.93,303.29A85.9,85.9,0,0,1,371.25,288"/><path id="Trazado_49697" data-name="Trazado 49697" class="cls-18" d="M372.22,301.44a54.41,54.41,0,0,1-4-12.89"/><path id="Trazado_49698" data-name="Trazado 49698" class="cls-15" d="M518.24,217.84c27.93,22.14,24.61,34.44,23.62,68.54.39,7.35-4.62,15.49-7,17s-2.71-1.17-2.33-3.88.39-16.64.39-16.64c-3.53,11.35-5.78,10.71-2.72-2.65,1.55-5.36,5.43-13.16,5-14.72s-12.77-24.78-14.71-32.14"/><path id="Trazado_49699" data-name="Trazado 49699" class="cls-18" d="M533.74,302.67a80.32,80.32,0,0,0,2.45-15.95"/><path id="Trazado_49700" data-name="Trazado 49700" class="cls-18" d="M536.5,302.36s3.68-10.12,3.68-14.1"/></g><g id="freepik--character-1--inject-46"><path id="Elipse_3679" data-name="Elipse 3679" class="cls-10" d="M180.94,487c165.59.29,165.59,59.16,0,59.45C15.35,546.14,15.36,487.27,180.94,487Z"/><path id="Elipse_3680" data-name="Elipse 3680" class="cls-11" d="M180.94,487c165.59.29,165.59,59.16,0,59.45C15.35,546.14,15.36,487.27,180.94,487Z"/><path id="Trazado_49701" data-name="Trazado 49701" class="cls-14" d="M127.84,496s-18.73,9.9-22.2,15c-7,21.1,43,.2,46.86-.88,2.62-1.28.73-8.94-1.18-12.87S127.84,496,127.84,496Z"/><path id="Trazado_49702" data-name="Trazado 49702" class="cls-15" d="M153.41,503.85c-14.12,5-34.9,18.73-49,9.93,2.55,16.58,42.41-2.77,48-3.68C153.89,509.39,154,506.75,153.41,503.85Z"/><path id="Trazado_49703" data-name="Trazado 49703" class="cls-14" d="M218.6,496s18.74,9.85,22.27,15c7.13,21.11-43,.22-46.86-.87-2.62-1.28-.72-8.94,1.17-12.87S218.6,496,218.6,496Z"/><path id="Trazado_49704" data-name="Trazado 49704" class="cls-15" d="M193,503.85c14.11,5,34.9,18.73,49,9.93-2.56,16.58-42.41-2.77-48-3.68C192.56,509.39,192.49,506.75,193,503.85Z"/><path id="Trazado_49705" data-name="Trazado 49705" class="cls-12" d="M137.12,303.21c-1.24,14.85-26.8,92.25-20.77,113.83,2.77,7.08,11.66,76.64,11.66,76.64l25.55,7c.86-5.95-1.22-92.3-2.37-102L178.36,331c4.53.68,22.92,62.62,24.79,66.6l-12,101.7,24.3-6.37c1.58-11,33.25-87.21,26.66-106.78C239.5,379.93,222.29,311,222.29,311Z"/><path id="Trazado_49706" data-name="Trazado 49706" class="cls-13" d="M191.47,349.91s13.36,45.43,17.58,47.28,13-1.37,6.35,3.08-6.16.31-6.64,4.47S199.39,483,199.39,483"/><line id="Línea_874" data-name="Línea 874" class="cls-13" x1="151.44" y1="461.39" x2="152.08" y2="466.89"/><path id="Trazado_49707" data-name="Trazado 49707" class="cls-13" d="M165.74,354.78C160.16,369.79,151,393,147,395.56c-6,3.76-13.52,4.84-9.34,6s7,1.71,7,1.71l5.81,49.91"/><path id="Trazado_49708" data-name="Trazado 49708" class="cls-13" d="M170.36,342.06s-.62,1.77-1.67,4.62"/><path id="Trazado_49709" data-name="Trazado 49709" class="cls-15" d="M188.72,183.12c-3.14-.36-80.93-13.59-89-15.59l-7.26,23.25c2.15,1,47.13,15.35,53.91,17.75,0,0,1.14,56.14-2.44,68.22s-11.62,36.38-11.62,36.38L175,337l8.54-13.19.68,12.47c15.61-1.14,31.21-5.08,44.71-13.18l-9.56-42,13.05-54.22s65.76-13.07,66.16-17.3-9-19.77-9-19.77C283.09,189.33,191.44,183.41,188.72,183.12Z"/><path id="Trazado_49710" data-name="Trazado 49710" class="cls-15" d="M174.27,180.23l-1.82,26.61,21.84-8.55,23.2,17.89-.74-35Z"/><line id="Línea_875" data-name="Línea 875" class="cls-18" x1="192.9" y1="219.34" x2="184.33" y2="321.25"/><path id="Trazado_49711" data-name="Trazado 49711" class="cls-18" d="M242.77,205.07l-10.31,21.75,22.08-23.63"/><path id="Trazado_49712" data-name="Trazado 49712" class="cls-18" d="M139.51,191.74l6.88,16.8-16.91-22.21"/><path id="Trazado_49713" data-name="Trazado 49713" class="cls-16" d="M184.23,182.32l8.63,37,15.41-34.88C201.55,183.86,190.85,183.67,184.23,182.32Z"/><g class="cls-22"><g id="Grupo_44628" data-name="Grupo 44628"><path id="Trazado_49714" data-name="Trazado 49714" class="cls-10" d="M184.23,182.32l8.63,37,15.41-34.88C201.55,183.86,190.85,183.67,184.23,182.32Z"/><path id="Trazado_49715" data-name="Trazado 49715" class="cls-11" d="M184.23,182.32l8.63,37,15.41-34.88C201.55,183.86,190.85,183.67,184.23,182.32Z"/></g></g><path id="Trazado_49717" data-name="Trazado 49717" class="cls-18" d="M184.23,182.32l8.63,37,15.41-34.88C201.55,183.86,190.85,183.67,184.23,182.32Z"/><path id="Trazado_49718" data-name="Trazado 49718" class="cls-15" d="M314.91,201.06s.74,6.16-2.66,8.86-17.82,7.37-21.85,5c-10-8.78-14-35.86,8.21-29.9C298.61,185,311.8,189.18,314.91,201.06Z"/><path id="Trazado_49719" data-name="Trazado 49719" class="cls-15" d="M302.71,207.59a13.47,13.47,0,0,1-13.48-10.31c-4-15.41-13.87-51.88-17.55-54.36-4.75-3.16-8.39-4-8.33-6.89l.31-14.59c2.76-4.26,5,2,4.57,5.07,0,0,2.32-6.54,2.08-8.57,0-3.67-3.38-15,4.11-8.83,2.85,3,8.41,9.37,7.34,12.42s-3,18-3,18,35.7,52.39,35,57C313.28,199.94,310.41,207.16,302.71,207.59Z"/><path id="Trazado_49720" data-name="Trazado 49720" class="cls-18" d="M278.55,114.18c-4.07-2.31-1.88,4.34-.88,6.23l-1.76,5.85"/><path id="Trazado_49721" data-name="Trazado 49721" class="cls-18" d="M276.68,112.23c-3.51-1.87-3.63,5.5-2.06,7.79l-1.36,5.55"/><path id="Trazado_49722" data-name="Trazado 49722" class="cls-18" d="M274.42,109.11c-5-1-2.8,6.09-2.1,9.11l-1.28,7.2"/><path id="Elipse_3681" data-name="Elipse 3681" class="cls-10" d="M118.36,59.53C167.6-56,340.7,14.27,295.42,131.43,246.18,247,73.08,176.69,118.36,59.53Z"/><g class="cls-23"><g id="Grupo_44629" data-name="Grupo 44629"><path id="Trazado_49723" data-name="Trazado 49723" class="cls-20" d="M141,91.62A95.53,95.53,0,0,1,221.86,1.14c-144.53-16.83-144.93,205.08-.4,188.79A95.54,95.54,0,0,1,141,91.62Z"/></g></g><path id="Elipse_3683" data-name="Elipse 3683" class="cls-24" d="M118.36,59.53C167.6-56,340.7,14.27,295.42,131.43,246.18,247,73.08,176.69,118.36,59.53Z"/><path id="Trazado_49724" data-name="Trazado 49724" class="cls-4" d="M149,104.09s70.13-9.25,128.16,5.3C268.12,187.33,158.17,183.32,149,104.09Z"/><path id="Trazado_49725" data-name="Trazado 49725" class="cls-4" d="M214.06,73.81a4.62,4.62,0,0,1-4.62-4c-2.81-24.45-41.09-26.9-47.53-3.26A4.63,4.63,0,1,1,153,63.93c4-13.79,17.29-23.44,32.36-23.44C205.9,37.83,228.84,70,214.06,73.81Z"/><path id="Trazado_49726" data-name="Trazado 49726" class="cls-4" d="M281.31,84.79a4.64,4.64,0,0,1-4.63-4.49c-.13-21.43-33.71-27.42-41.57-7a4.63,4.63,0,1,1-8.58-3.46c4.91-12.23,17.9-19.8,31.62-18.49,15.4,1.54,27.36,13.87,27.73,28.65a4.61,4.61,0,0,1-4.48,4.74Z"/><path id="Trazado_49727" data-name="Trazado 49727" class="cls-16" d="M158.14,105.88c.55,2.3,4.79,15,29.55,16,27.25,1.12,54.44,3.27,68.62,2.83,8.48-.24,12.53-7.53,14.42-13.37C227.84,101.52,179.6,104,158.14,105.88Z"/><path id="Trazado_49728" data-name="Trazado 49728" class="cls-5" d="M229.27,161.63c.42-23.75-41.06-34.34-59.55-18.36C184,160.74,207.8,166.32,229.27,161.63Z"/><path id="Trazado_49729" data-name="Trazado 49729" class="cls-15" d="M125.1,496.38,155.63,506l.24-12.58-32-6.62Z"/><path id="Trazado_49730" data-name="Trazado 49730" class="cls-15" d="M187.8,498.24l3.76,11.15,30.07-12.22-2.27-10.4Z"/><path id="Trazado_49731" data-name="Trazado 49731" class="cls-15" d="M75.74,176.16s-2,5.84.71,9.24,15.83,11,20.3,9.51c11.63-6.43,21.37-32-1.64-30.95C95.11,164,81.32,165.23,75.74,176.16Z"/><path id="Trazado_49732" data-name="Trazado 49732" class="cls-15" d="M83.11,184.29a13.46,13.46,0,0,0,15.41-7.18c7.23-14.27,24.56-47.77,28.74-49.38,5.31-2.07,9-2.08,9.6-5s2.82-14.31,2.82-14.31c-1.78-4.75-5.27.84-5.53,4,0,0-.88-6.87-.2-8.81.74-3.6,6.49-14-2.15-9.5-3.42,2.3-10.23,7.36-9.82,10.56s-.92,18.26-.92,18.26-46,43.56-46.38,48.26C74.4,174.62,75.67,182.23,83.11,184.29Z"/><path id="Trazado_49733" data-name="Trazado 49733" class="cls-18" d="M131.83,94.13a35.72,35.72,0,0,0-3.6,17.16"/><path id="Trazado_49734" data-name="Trazado 49734" class="cls-18" d="M127,97.71c-1.55,3.43-2.28,10.56-2.13,13.56"/></g></g></g></g></g></svg>