<svg xmlns="http://www.w3.org/2000/svg" xmlns:xlink="http://www.w3.org/1999/xlink" width="704.301" height="500.037" viewBox="0 0 704.301 500.037">
  <defs>
    <clipPath id="clip-path">
      <rect id="Rectángulo_18680" data-name="Rectángulo 18680" width="418" height="415" fill="none"/>
    </clipPath>
    <clipPath id="clip-path-2">
      <path id="Trazado_49823" data-name="Trazado 49823" d="M239.51,184.9s-46.552,55.3-56.35,65.439-10.161,17.5-7,22.049,26.939,12.961,51.442,28.7,94.159,56.35,94.85,57.768,7.362-49.079,7.362-49.079L213.262,261.827l.345-3.508,37.809-70Z" transform="translate(-174.39 -184.9)" fill="#fff" stroke="#263238" stroke-linecap="round" stroke-linejoin="round" stroke-width="0.75"/>
    </clipPath>
    <clipPath id="clip-path-3">
      <path id="Trazado_49833" data-name="Trazado 49833" d="M169.064,511.864c-19.014-3.2-43.371-16.269-50.624-32.719,5.453-28.52,12.342-68.693,12.342-93.269,0-41.3-10.906-64.748-5.944-92.705s15.4-46.189,26.594-53.551c0,0,17.141,4.544,34.646,20.995s32.9,44.735,38.9,71.692,14,109.9,14,131.6,1.563,48.643,1.563,48.643H177.662A48.1,48.1,0,0,1,169.064,511.864Z" transform="translate(-118.44 -239.62)" fill="#fff" stroke="#263238" stroke-linecap="round" stroke-linejoin="round" stroke-width="0.75"/>
    </clipPath>
    <clipPath id="clip-path-4">
      <path id="Trazado_49843" data-name="Trazado 49843" d="M260.611,247.913s-1.054,13.651-2.109,20.3,15.4,25.267,15.4,25.267L250.1,329.53l-26.957-21s-38.173-2.8-41.645-5.962-3.508-37.791-3.508-37.791l-9.089-5.253s8.4-36.355,10.488-44.462l2.109-8.034s-12.252-4.217-9.452-16.36,20.65-18.177,38.5-15.414,22.395,9.452,22.395,9.452,25.212-.345,39.554,11.561,5.6,30.793,1.054,37.446A104.026,104.026,0,0,1,260.611,247.913Z" transform="translate(-168.905 -174.596)" fill="#fff" stroke="#263238" stroke-linecap="round" stroke-linejoin="round" stroke-width="0.75"/>
    </clipPath>
    <clipPath id="clip-path-5">
      <path id="Trazado_49850" data-name="Trazado 49850" d="M182.589,234.8s2.09-22.049,12.942-22.74,10.507,15.051,7.271,25.9S191.9,252.3,185.661,246.706" transform="translate(-182.589 -212.038)" fill="#c7e8e1" stroke="#263238" stroke-linecap="round" stroke-linejoin="round" stroke-width="0.75"/>
    </clipPath>
    <clipPath id="clip-path-6">
      <path id="Trazado_49855" data-name="Trazado 49855" d="M197.81,232.65,162.8,285.855l16.105,20.65a406.777,406.777,0,0,1,24.14-40.608c11.906-16.8,13.306-19.6,13.306-19.6Z" transform="translate(-162.8 -232.65)" fill="#fff" stroke="#263238" stroke-linecap="round" stroke-linejoin="round" stroke-width="0.75"/>
    </clipPath>
    <clipPath id="clip-path-7">
      <path id="Trazado_49861" data-name="Trazado 49861" d="M244.145,324.652s10.161-42.353,14.36-51.806S286.5,254.669,298.06,275.3s1.054,44.1-3.163,60.895S264.1,428.9,260.251,438.407s-10.906,7.271-14.706,6.308S135.3,357.9,135.3,357.9l8.4-18.886,82.6,42.408Z" transform="translate(-135.299 -262.673)" fill="#fff" stroke="#263238" stroke-linecap="round" stroke-linejoin="round" stroke-width="0.75"/>
    </clipPath>
  </defs>
  <g id="No_data-bro-2" data-name="No data-bro-2" transform="translate(0.52)">
    <g id="freepik--Device--inject-105" transform="translate(0 145.492)">
      <path id="Trazado_49735" data-name="Trazado 49735" d="M554.269,467.525,631.8,293.93H443.932L212.26,446.748" transform="translate(-212.26 -121.444)" fill="#fff" stroke="#263238" stroke-linecap="round" stroke-linejoin="round" stroke-width="0.75"/>
      <path id="Trazado_49736" data-name="Trazado 49736" d="M236.436,460.69l58.3-155.181V293.93L212.26,475.614Z" transform="translate(124.804 -121.444)" fill="#263238" stroke="#263238" stroke-linecap="round" stroke-linejoin="round" stroke-width="0.75"/>
      <path id="Trazado_49737" data-name="Trazado 49737" d="M311.538,297.88,231.63,391.548l96.995,22.595,55.114-104.7Z" transform="translate(0.587 -118.214)" fill="#fff" stroke="#263238" stroke-linecap="round" stroke-linejoin="round" stroke-width="0.75"/>
      <path id="Trazado_49738" data-name="Trazado 49738" d="M358.945,372v2.763L263.6,355.481l-1.654-6.071Z" transform="translate(-29.733 -76.076)" fill="#263238" stroke="#263238" stroke-linecap="round" stroke-linejoin="round" stroke-width="0.75"/>
      <path id="Trazado_49739" data-name="Trazado 49739" d="M284.177,317.622l-4.09,6.035-10.4-2.817,4.326-5.89Z" transform="translate(30.965 -104.255)" fill="#263238"/>
      <path id="Trazado_49740" data-name="Trazado 49740" d="M282.12,339.739l4.944-6.689,11.815,3.181-4.617,6.835Z" transform="translate(-6.332 -89.454)" fill="#263238"/>
      <path id="Trazado_49741" data-name="Trazado 49741" d="M277.835,310.473l-3.036,4.508-9.779-2.49,3.072-4.181Z" transform="translate(45.796 -109.685)" fill="#263238"/>
      <path id="Trazado_49742" data-name="Trazado 49742" d="M292.412,326.171l-5.6,8.289-11.434-2.89,6.18-8.38Z" transform="translate(12.387 -97.517)" fill="#263238"/>
      <path id="Trazado_49743" data-name="Trazado 49743" d="M291.37,326.97l9.8,2.49-4.908,6.653-9.979-2.69Z" transform="translate(-16.181 -94.426)" fill="#263238"/>
      <path id="Trazado_49744" data-name="Trazado 49744" d="M295.424,331.507l-4.672,6.944-11.743-3.181,4.926-6.689Z" transform="translate(2.777 -93.109)" fill="#263238"/>
      <path id="Trazado_49745" data-name="Trazado 49745" d="M271.327,311.782l-3.017,4.872-9.38-2.4L262,309.71Z" transform="translate(63.374 -108.54)" fill="#263238"/>
      <path id="Trazado_49746" data-name="Trazado 49746" d="M287.557,321.806l-4.326,6.38L272.47,325.2l4.6-6.235Z" transform="translate(22.532 -100.968)" fill="#263238"/>
      <path id="Trazado_49747" data-name="Trazado 49747" d="M280.79,313.9l-3.49,5.181-10.07-2.654,3.708-5.035Z" transform="translate(38.824 -107.166)" fill="#263238"/>
      <path id="Trazado_49748" data-name="Trazado 49748" d="M247.78,321.678l3.054-5.508,11.143,2.836-3.108,5.6Z" transform="translate(92.993 -103.257)" fill="#263238"/>
      <path id="Trazado_49749" data-name="Trazado 49749" d="M252.553,330.333l-7.653-2.054,3.545-6.4,7.525,1.981Z" transform="translate(104.234 -98.588)" fill="#263238"/>
      <path id="Trazado_49750" data-name="Trazado 49750" d="M268.744,308.752l-2.381,3.854-9.252-2.054,2.49-3.672Z" transform="translate(69.266 -110.854)" fill="#263238"/>
      <path id="Trazado_49751" data-name="Trazado 49751" d="M245.6,317.728l2.945-5.308,11.325,2.49-3.127,5.653Z" transform="translate(99.063 -106.324)" fill="#263238"/>
      <path id="Trazado_49752" data-name="Trazado 49752" d="M262.73,309.99l-2.254,4.072-9.416-2.072,2.418-3.89Z" transform="translate(86.277 -109.857)" fill="#263238"/>
      <path id="Trazado_49753" data-name="Trazado 49753" d="M248,321.58l-7.38-1.89,3.163-5.69,7.362,1.618Z" transform="translate(116.839 -105.032)" fill="#263238"/>
      <path id="Trazado_49754" data-name="Trazado 49754" d="M257.528,311.675l-2.363,4.254-11.325-2.49,2.272-4.108Z" transform="translate(104.603 -108.851)" fill="#263238"/>
      <path id="Trazado_49755" data-name="Trazado 49755" d="M277.225,319.233l-3.817,6.162-10-2.69,4.09-6.035Z" transform="translate(49.333 -102.848)" fill="#263238"/>
      <path id="Trazado_49756" data-name="Trazado 49756" d="M268.73,333.343l5.581-8.253,10.416,2.872-5.053,8.162Z" transform="translate(32.161 -95.963)" fill="#263238"/>
      <path id="Trazado_49757" data-name="Trazado 49757" d="M265.3,313.15l-2.908,5.271-9.634-2.454,3.036-4.908Z" transform="translate(80.614 -107.436)" fill="#263238"/>
      <path id="Trazado_49758" data-name="Trazado 49758" d="M253.948,330.74,261.8,332.9l-4.072,7.689-8.089-2.054Z" transform="translate(89.787 -91.343)" fill="#263238"/>
      <path id="Trazado_49759" data-name="Trazado 49759" d="M280.388,323.507l-4.035,6.507-10.343-2.836,4.308-6.4Z" transform="translate(41.443 -99.488)" fill="#263238"/>
      <path id="Trazado_49760" data-name="Trazado 49760" d="M254.82,319.932l3.326-5.362,9.707,2.472-3.054,5.526Z" transform="translate(74.319 -104.566)" fill="#263238"/>
      <path id="Trazado_49761" data-name="Trazado 49761" d="M269.909,348.87l11.106,2.836-3.963,7.144L265.91,356.1Z" transform="translate(40.998 -76.517)" fill="#263238"/>
      <path id="Trazado_49762" data-name="Trazado 49762" d="M269.337,309.869l-9.507-1.945,5.108-6.944,9.361,1.545Z" transform="translate(58.766 -115.679)" fill="#263238"/>
      <path id="Trazado_49763" data-name="Trazado 49763" d="M240.72,312.237l4.6-8.307,11.652,1.927-4.835,8.725Z" transform="translate(110.832 -113.267)" fill="#263238"/>
      <path id="Trazado_49764" data-name="Trazado 49764" d="M249.95,326.364l3.508-6.344,11.088,2.927-3.545,6.4Z" transform="translate(86.478 -100.109)" fill="#263238"/>
      <path id="Trazado_49765" data-name="Trazado 49765" d="M264.73,339.426l4.472-7.216,11.561,2.945-4.144,7.489Z" transform="translate(43.396 -90.141)" fill="#263238"/>
      <path id="Trazado_49766" data-name="Trazado 49766" d="M261.82,335.064l5.053-8.143,10.888,3-4.453,8.053Z" transform="translate(51.686 -94.467)" fill="#263238"/>
      <path id="Trazado_49767" data-name="Trazado 49767" d="M272.01,337.392l4.69-6.962,11.016,2.8-4.472,7.2Z" transform="translate(23.21 -91.596)" fill="#263238"/>
      <path id="Trazado_49768" data-name="Trazado 49768" d="M256.95,324.5l3.817-6.18,10.07,2.672-3.508,6.308Z" transform="translate(67.463 -101.499)" fill="#263238"/>
      <path id="Trazado_49769" data-name="Trazado 49769" d="M274.051,315.428l-3.308,5.326-9.652-2.545,3.508-5.2Z" transform="translate(56.724 -105.841)" fill="#263238"/>
      <path id="Trazado_49770" data-name="Trazado 49770" d="M259.33,329.056l4.035-6.526,10.47,2.818-3.708,6.689Z" transform="translate(60.139 -98.056)" fill="#263238"/>
      <path id="Trazado_49771" data-name="Trazado 49771" d="M274.97,341.895l4.635-6.835,11.306,3.054-4.308,6.962Z" transform="translate(14.633 -87.81)" fill="#263238"/>
      <path id="Trazado_49772" data-name="Trazado 49772" d="M270.08,349.564l4.926-7.944,12.433,3.417-4.363,7.834Z" transform="translate(26.994 -82.446)" fill="#263238"/>
      <path id="Trazado_49773" data-name="Trazado 49773" d="M252.32,343.539l4.254-7.689,8.125,2.072-4.144,7.853Z" transform="translate(82.018 -87.164)" fill="#263238"/>
      <path id="Trazado_49774" data-name="Trazado 49774" d="M250.946,326.22l7.689,2.072-3.617,6.817-7.8-2.145Z" transform="translate(97.352 -95.039)" fill="#263238"/>
      <path id="Trazado_49775" data-name="Trazado 49775" d="M263.12,351.574l4.326-7.834,11.016,3.017-4.235,7.635Z" transform="translate(48.623 -80.712)" fill="#263238"/>
      <path id="Trazado_49776" data-name="Trazado 49776" d="M252.35,331l3.69-6.671,11.052,2.981-3.745,6.744Z" transform="translate(79.57 -96.585)" fill="#263238"/>
      <path id="Trazado_49777" data-name="Trazado 49777" d="M275.253,307.563l-2.472,3.654-9.67-2.145,2.563-3.472Z" transform="translate(51.851 -111.901)" fill="#263238"/>
      <path id="Trazado_49778" data-name="Trazado 49778" d="M246.216,316.718,238.89,315.1l2.363-4.29,7.307,1.491Z" transform="translate(122.569 -107.641)" fill="#263238"/>
      <path id="Trazado_49779" data-name="Trazado 49779" d="M263.029,311.242l-9.089-1.854,5-7.4,8.907,1.472Z" transform="translate(75.926 -114.853)" fill="#263238"/>
      <path id="Trazado_49780" data-name="Trazado 49780" d="M257.26,312.685l-9.18-1.872,4.872-7.853,8.889,1.472Z" transform="translate(92.584 -114.06)" fill="#263238"/>
      <path id="Trazado_49781" data-name="Trazado 49781" d="M242.79,323.6l3.127-5.635,7.416,1.891-3.036,5.708Z" transform="translate(110.707 -101.794)" fill="#263238"/>
      <path id="Trazado_49782" data-name="Trazado 49782" d="M274.2,308.3l-8.216-1.69,5.162-6.526,8.125,1.327Z" transform="translate(42.618 -116.415)" fill="#263238"/>
      <path id="Trazado_49783" data-name="Trazado 49783" d="M235.8,313.938l4.872-8.8,7.2,1.2-4.817,9.071Z" transform="translate(128.876 -112.277)" fill="#263238"/>
      <path id="Trazado_49784" data-name="Trazado 49784" d="M264.163,350.66l8.725,2.218L269.107,360l-8.907-2.2Z" transform="translate(59.505 -75.053)" fill="#263238"/>
      <path id="Trazado_49785" data-name="Trazado 49785" d="M285.94,344.84l12.288,3.127-4.49,7.253-12.688-3.145Z" transform="translate(-3.735 -79.813)" fill="#263238"/>
      <path id="Trazado_49786" data-name="Trazado 49786" d="M277.4,346.8l13.088,3.327-4.017,7.253-13.542-3.345Z" transform="translate(18.763 -78.21)" fill="#263238"/>
      <path id="Trazado_49787" data-name="Trazado 49787" d="M294.094,342.8l12.833,3.272-4.89,7.253-13.288-3.29Z" transform="translate(-26.431 -81.481)" fill="#263238"/>
      <path id="Trazado_49788" data-name="Trazado 49788" d="M302.486,341.03l10.906,2.781-5.362,7.253-11.27-2.8Z" transform="translate(-47.456 -82.928)" fill="#263238"/>
      <path id="Trazado_49789" data-name="Trazado 49789" d="M261.787,345.65l8.453,2.309-3.981,7.525-8.689-2.218Z" transform="translate(66.934 -79.15)" fill="#263238"/>
      <path id="Trazado_49790" data-name="Trazado 49790" d="M267.47,343.952l4.308-6.962,11.961,3.236-3.926,7.107Z" transform="translate(35.439 -86.232)" fill="#263238"/>
      <path id="Trazado_49791" data-name="Trazado 49791" d="M277.84,347.663l5.453-8.053,11.688,3.2-4.926,7.962Z" transform="translate(5.346 -84.089)" fill="#263238"/>
      <path id="Trazado_49792" data-name="Trazado 49792" d="M260.49,346.117l3.945-7.107,11.034,3-3.963,7.125Z" transform="translate(56.397 -84.58)" fill="#263238"/>
      <path id="Trazado_49793" data-name="Trazado 49793" d="M263.456,350.352l-8.416-2.309L259,340.9l8.271,2.236Z" transform="translate(74.499 -83.035)" fill="#263238"/>
      <path id="Trazado_49794" data-name="Trazado 49794" d="M254.86,336.854l4.435-8.034,11.016,3.036-4.326,7.816Z" transform="translate(71.789 -92.913)" fill="#263238"/>
      <path id="Trazado_49795" data-name="Trazado 49795" d="M285.2,345.682l6.017-8.162,12.215,3.345-5.471,8.071Z" transform="translate(-16.483 -85.799)" fill="#263238"/>
      <path id="Trazado_49796" data-name="Trazado 49796" d="M257.7,341.567l4.163-7.507,11.125,2.836-4.254,7.671Z" transform="translate(63.95 -88.628)" fill="#263238"/>
      <path id="Trazado_49797" data-name="Trazado 49797" d="M298.213,324.075l-6.2,8.4L282.29,330l6.689-8.471Z" transform="translate(-5.975 -98.874)" fill="#263238"/>
      <path id="Trazado_49798" data-name="Trazado 49798" d="M282.226,317.132l-8.616-2.272,3.872-4.89,8.434,2.145Z" transform="translate(22.101 -108.327)" fill="#263238"/>
      <path id="Trazado_49799" data-name="Trazado 49799" d="M282.775,308.934l-3.017,4.108-8.4-2.127,3.036-3.835Z" transform="translate(29.331 -110.691)" fill="#263238"/>
      <path id="Trazado_49800" data-name="Trazado 49800" d="M292.86,343.971l6.508-8.271,10.361,2.836-6.035,8.2Z" transform="translate(-36.703 -87.287)" fill="#263238"/>
      <path id="Trazado_49801" data-name="Trazado 49801" d="M289.435,315.73l-4.344,5.871-8.871-2.4,4.544-5.762Z" transform="translate(13.838 -105.49)" fill="#263238"/>
      <path id="Trazado_49802" data-name="Trazado 49802" d="M304.811,334.008l-4.944,6.707L289.56,337.9l5.217-6.6Z" transform="translate(-25.787 -90.885)" fill="#263238"/>
      <path id="Trazado_49803" data-name="Trazado 49803" d="M277.713,309.614l-8.343-1.836,2.6-3.308,8.271,1.69Z" transform="translate(35.484 -112.825)" fill="#263238"/>
      <path id="Trazado_49804" data-name="Trazado 49804" d="M288.37,326.042l-9.18-2.545,4.817-6.108,8.943,2.418Z" transform="translate(4.923 -102.26)" fill="#263238"/>
      <path id="Trazado_49805" data-name="Trazado 49805" d="M343.786,303.64v14.869a29.089,29.089,0,0,0,4.962,3.854c2.745,1.654,25.339,5.453,25.339,5.453l-28.648,31.429s-26.266-2.872-33.628-4.962c-7.707-2.218-6.053-30.32-6.053-30.32Z" transform="translate(-124.239 -113.504)" fill="#fff" stroke="#263238" stroke-linecap="round" stroke-linejoin="round" stroke-width="0.75"/>
      <path id="Trazado_49806" data-name="Trazado 49806" d="M359.876,303.64v14.869s.4.4,1.054.982l-33.5,34.646c-7.162-3.217-5.581-30.12-5.581-30.12Z" transform="translate(-140.328 -113.504)" fill="#263238" stroke="#263238" stroke-linecap="round" stroke-linejoin="round" stroke-width="0.75"/>
      <path id="Trazado_49807" data-name="Trazado 49807" d="M414.525,199.04V356.657L294.39,451.434V207.856Z" transform="translate(-144.281 -199.04)" fill="#fff" stroke="#263238" stroke-linecap="round" stroke-linejoin="round" stroke-width="0.75"/>
      <path id="Trazado_49808" data-name="Trazado 49808" d="M399.788,203.59v132.8L298.94,398.671V212.406Z" transform="translate(-137.815 -195.319)" fill="#c7e8e1" stroke="#263238" stroke-linecap="round" stroke-linejoin="round" stroke-width="0.75"/>
      <rect id="Rectángulo_18672" data-name="Rectángulo 18672" width="12.124" height="243.633" transform="translate(137.985 8.816)" fill="#263238" stroke="#263238" stroke-linecap="round" stroke-linejoin="round" stroke-width="0.75"/>
      <path id="Trazado_49809" data-name="Trazado 49809" d="M387.432,208.14l-.545,118.481L302.58,374.555V227.844l57.859-8.762,3.854-8.2Z" transform="translate(-132.076 -191.598)" fill="#fff" stroke="#263238" stroke-linecap="round" stroke-linejoin="round" stroke-width="0.75"/>
      <path id="Trazado_49810" data-name="Trazado 49810" d="M380.01,216.02V316.869l-74.4,39.681v-127.3Z" transform="translate(-130.161 -185.155)" fill="#c7e8e1" stroke="#263238" stroke-linecap="round" stroke-linejoin="round" stroke-width="0.75"/>
      <ellipse id="Elipse_3686" data-name="Elipse 3686" cx="20.05" cy="27.63" rx="20.05" ry="27.63" transform="translate(225.342 135.679) rotate(-161.44)" fill="#263238"/>
      <path id="Trazado_49811" data-name="Trazado 49811" d="M325.488,264.879l-7.071-7.835a4.017,4.017,0,0,1,.127-4.708c1.054-1.509,2.708-1.818,3.635-.745l6.8,7.544,6.817-10.906c.982-1.581,2.636-2.072,3.635-1.091a3.835,3.835,0,0,1,.145,4.635L332.5,263.134l7.2,7.8a4,4,0,0,1-.145,4.708,3.054,3.054,0,0,1-1.818,1.327,1.818,1.818,0,0,1-1.818-.582l-6.817-7.544-6.8,10.907a3.254,3.254,0,0,1-1.927,1.527,1.818,1.818,0,0,1-1.818-.436,3.854,3.854,0,0,1-.127-4.635Z" transform="translate(-112.558 -160.122)" fill="#fff"/>
      <line id="Línea_876" data-name="Línea 876" x1="41.663" y2="12.233" transform="translate(194.971 65.039)" fill="none" stroke="#263238" stroke-linecap="round" stroke-linejoin="round" stroke-width="0.75"/>
      <line id="Línea_877" data-name="Línea 877" x1="54.005" y2="15.069" transform="translate(184.283 53.46)" fill="none" stroke="#263238" stroke-linecap="round" stroke-linejoin="round" stroke-width="0.75"/>
      <path id="Trazado_49812" data-name="Trazado 49812" d="M338.739,371.333s26.339,2.436,36.082,10.234,2.436,11.706-6.817,14.142-50.715-1.472-56.077-6.835S311.927,370.352,338.739,371.333Z" transform="translate(-137.678 -58.19)" fill="#fff" stroke="#263238" stroke-linecap="round" stroke-linejoin="round" stroke-width="0.75"/>
      <path id="Trazado_49813" data-name="Trazado 49813" d="M319.348,382.763a6.289,6.289,0,0,1-1.818-3.854c11.8-.582,27.266,2.836,41.317,7.271a147.342,147.342,0,0,0,14.433,3.8C361.029,391.452,324.365,387.707,319.348,382.763Z" transform="translate(-145.099 -52.006)" fill="#263238" stroke="#263238" stroke-linecap="round" stroke-linejoin="round" stroke-width="0.75"/>
      <line id="Línea_878" data-name="Línea 878" x1="19.25" y2="10.016" transform="translate(275.188 23.849)" fill="none" stroke="#263238" stroke-linecap="round" stroke-linejoin="round" stroke-width="1"/>
      <line id="Línea_879" data-name="Línea 879" x1="5.726" y2="2.981" transform="translate(299.764 18.105)" fill="none" stroke="#263238" stroke-linecap="round" stroke-linejoin="round" stroke-width="1"/>
      <line id="Línea_880" data-name="Línea 880" x1="6.526" y2="0.745" transform="translate(283.677 74.309)" fill="none" stroke="#263238" stroke-linecap="round" stroke-linejoin="round" stroke-width="1"/>
      <line id="Línea_881" data-name="Línea 881" x1="17.596" y2="2.036" transform="translate(297.583 71.419)" fill="none" stroke="#263238" stroke-linecap="round" stroke-linejoin="round" stroke-width="1"/>
      <line id="Línea_882" data-name="Línea 882" x2="21.813" y2="6.053" transform="translate(286.095 121.116)" fill="none" stroke="#263238" stroke-linecap="round" stroke-linejoin="round" stroke-width="1"/>
    </g>
    <g id="freepik--Clock--inject-105" transform="translate(262.082 0)">
      <path id="Trazado_49814" data-name="Trazado 49814" d="M293.649,119a52.169,52.169,0,1,1-52.169,52.169A52.169,52.169,0,0,1,293.649,119Zm0,94.087a17.371,17.371,0,1,0,0,.055Z" transform="translate(-241.48 -119)" fill="#263238"/>
      <path id="Trazado_49815" data-name="Trazado 49815" d="M268.132,149.366a3.726,3.726,0,1,0,3.726-3.636,3.726,3.726,0,0,0-3.726,3.636Z" transform="translate(-219.689 -97.142)" fill="#263238"/>
      <path id="Trazado_49816" data-name="Trazado 49816" d="M296.9,166.653,284.414,147.73,263.31,165.2" transform="translate(-232.245 -95.506)" fill="none" stroke="#263238" stroke-linecap="round" stroke-linejoin="round" stroke-width="1"/>
    </g>
    <g id="freepik--file-cabinet--inject-105" transform="translate(492.7 32.429)">
      <path id="Trazado_49817" data-name="Trazado 49817" d="M145.786,196.626l6.271-17.141-3.345,3.763v-5.853l-7.107,10.87,6.271-38.882L139.515,170.7l-.836-18.814-1.254,6.271-1.672-21.322-2.927,32.61-4.181-11.288.836,14.633-11.288-33.447,5.435,41.808-7.944-5.853,4.6,7.525-5.853-4.181L121.1,197.88l24.267.418" transform="translate(-47.392 -136.84)" fill="#c7e8e1"/>
      <path id="Trazado_49818" data-name="Trazado 49818" d="M121.415,213.338h26.139l7.053-45.3H114.38Z" transform="translate(-49.85 -111.326)" fill="#263238" stroke="#263238" stroke-linecap="round" stroke-linejoin="round" stroke-width="1"/>
      <rect id="Rectángulo_18673" data-name="Rectángulo 18673" width="131.95" height="351.025" transform="translate(0 101.703)" fill="#fff" stroke="#263238" stroke-linecap="round" stroke-linejoin="round" stroke-width="1"/>
      <rect id="Rectángulo_18674" data-name="Rectángulo 18674" width="115.3" height="84.543" transform="translate(8.98 113.227)" fill="none" stroke="#263238" stroke-linecap="round" stroke-linejoin="round" stroke-width="1"/>
      <rect id="Rectángulo_18675" data-name="Rectángulo 18675" width="46.116" height="15.378" transform="translate(43.571 147.819)" fill="#263238"/>
      <rect id="Rectángulo_18676" data-name="Rectángulo 18676" width="115.3" height="84.543" transform="translate(8.98 211.876)" fill="none" stroke="#263238" stroke-linecap="round" stroke-linejoin="round" stroke-width="1"/>
      <rect id="Rectángulo_18677" data-name="Rectángulo 18677" width="46.116" height="15.378" transform="translate(43.571 246.468)" fill="#263238"/>
      <rect id="Rectángulo_18678" data-name="Rectángulo 18678" width="115.3" height="84.543" transform="translate(8.98 310.507)" fill="none" stroke="#263238" stroke-linecap="round" stroke-linejoin="round" stroke-width="1"/>
      <rect id="Rectángulo_18679" data-name="Rectángulo 18679" width="46.116" height="15.378" transform="translate(43.571 345.099)" fill="#263238"/>
    </g>
    <g id="freepik--Character--inject-105" transform="translate(285.781 72.391)">
      <g id="Grupo_44640" data-name="Grupo 44640" transform="translate(0 0)" clip-path="url(#clip-path)">
        <path id="Trazado_49819" data-name="Trazado 49819" d="M269.844,389.011S203.714,359.8,168.159,357.6L142.22,414.914H338.137Z" transform="translate(-77.068 3.723)" fill="#263238" stroke="#263238" stroke-linecap="round" stroke-linejoin="round" stroke-width="0.75"/>
        <path id="Trazado_49820" data-name="Trazado 49820" d="M239.51,184.9s-46.552,55.3-56.35,65.439-10.161,17.5-7,22.049,26.939,12.961,51.442,28.7,94.159,56.35,94.85,57.768,7.362-49.079,7.362-49.079L213.262,261.827l.345-3.508,37.809-70Z" transform="translate(-127.224 -137.501)" fill="#fff"/>
        <g id="Grupo_44634" data-name="Grupo 44634" transform="translate(47.166 47.399)" clip-path="url(#clip-path-2)">
          <path id="Trazado_49821" data-name="Trazado 49821" d="M174.44,265.29l54.023-78.89,2.6.763-37.809,70-.345,3.508,116.554,47.952s-.127.873-.309,2.345l-7.6,17.432Z" transform="translate(-154.127 -183.673)" fill="#c7e8e1"/>
          <path id="Trazado_49822" data-name="Trazado 49822" d="M174.44,265.29l54.023-78.89,2.6.763-37.809,70-.345,3.508,116.554,47.952s-.127.873-.309,2.345l-7.6,17.432Z" transform="translate(-154.127 -183.673)" fill="#fff" opacity="0.5"/>
        </g>
        <path id="Trazado_49824" data-name="Trazado 49824" d="M239.51,184.9s-46.552,55.3-56.35,65.439-10.161,17.5-7,22.049,26.939,12.961,51.442,28.7,94.159,56.35,94.85,57.768,7.362-49.079,7.362-49.079L213.262,261.827l.345-3.508,37.809-70Z" transform="translate(-127.224 -137.501)" fill="none" stroke="#263238" stroke-linecap="round" stroke-linejoin="round" stroke-width="0.75"/>
        <path id="Trazado_49825" data-name="Trazado 49825" d="M198.151,172.591s5.6-4.908,8.4,0,3.145,12.942,1.4,13.651-8.743-.345-9.8-2.454S198.151,172.591,198.151,172.591Z" transform="translate(-48.765 -149.35)" fill="#fff" stroke="#263238" stroke-linecap="round" stroke-linejoin="round" stroke-width="0.75"/>
        <path id="Trazado_49826" data-name="Trazado 49826" d="M202.481,172.246s5.944-6.289,9.8-3.854,2.8,15.76,1.4,16.814-9.8-1.818-10.906-3.508S202.481,172.246,202.481,172.246Z" transform="translate(-62.892 -151.459)" fill="#fff" stroke="#263238" stroke-linecap="round" stroke-linejoin="round" stroke-width="0.75"/>
        <path id="Trazado_49827" data-name="Trazado 49827" d="M206.876,173.721s5.253-7.271,10.143-7.271,8.416,17.5,6.653,18.9-13.288-.345-14-1.4a95.331,95.331,0,0,1-2.8-10.234Z" transform="translate(-80.593 -152.589)" fill="#fff" stroke="#263238" stroke-linecap="round" stroke-linejoin="round" stroke-width="0.75"/>
        <path id="Trazado_49828" data-name="Trazado 49828" d="M211.063,185.68c0-2.09,1.036-20.3,7.271-19.25s12.942,15.76,12.6,18.177S211.063,185.68,211.063,185.68Z" transform="translate(-95.014 -152.641)" fill="#fff" stroke="#263238" stroke-linecap="round" stroke-linejoin="round" stroke-width="0.75"/>
        <path id="Trazado_49829" data-name="Trazado 49829" d="M263.013,227.26s-17.85,6.653-24.5,6.289" transform="translate(-176.975 -102.862)" fill="#fff" stroke="#263238" stroke-linecap="round" stroke-linejoin="round" stroke-width="0.75"/>
        <path id="Trazado_49830" data-name="Trazado 49830" d="M169.064,511.864c-19.014-3.2-43.371-16.269-50.624-32.719,5.453-28.52,12.342-68.693,12.342-93.269,0-41.3-10.906-64.748-5.944-92.705s15.4-46.189,26.594-53.551c0,0,17.141,4.544,34.646,20.995s32.9,44.735,38.9,71.692,14,109.9,14,131.6,1.563,48.643,1.563,48.643H177.662A48.1,48.1,0,0,1,169.064,511.864Z" transform="translate(63.757 -92.754)" fill="#fff"/>
        <g id="Grupo_44635" data-name="Grupo 44635" transform="translate(182.197 146.866)" clip-path="url(#clip-path-3)">
          <path id="Trazado_49831" data-name="Trazado 49831" d="M118.44,479.167c10.652,9.089,58.622,26.739,65.621,28.3s3.108-13.233-7.78-28.012,13.233,5.453,17.123,7-1.563-28.793-1.563-43.626-14.015-140.839-14.015-140.839L151.378,253.73l-9.089-5.453a39.044,39.044,0,0,1,9.089-8.707s17.141,4.544,34.646,21,32.956,44.826,38.954,71.783,14,109.9,14,131.6,1.563,48.643,1.563,48.643H177.662a48.1,48.1,0,0,1-8.562-.764C150.051,508.706,125.693,495.636,118.44,479.167Z" transform="translate(-118.44 -239.661)" fill="#c7e8e1"/>
          <path id="Trazado_49832" data-name="Trazado 49832" d="M118.44,479.167c10.652,9.089,58.622,26.739,65.621,28.3s3.108-13.233-7.78-28.012,13.233,5.453,17.123,7-1.563-28.793-1.563-43.626-14.015-140.839-14.015-140.839L151.378,253.73l-9.089-5.453a39.044,39.044,0,0,1,9.089-8.707s17.141,4.544,34.646,21,32.956,44.826,38.954,71.783,14,109.9,14,131.6,1.563,48.643,1.563,48.643H177.662a48.1,48.1,0,0,1-8.562-.764C150.051,508.706,125.693,495.636,118.44,479.167Z" transform="translate(-118.44 -239.661)" fill="#fff" opacity="0.5"/>
        </g>
        <path id="Trazado_49834" data-name="Trazado 49834" d="M169.064,511.864c-19.014-3.2-43.371-16.269-50.624-32.719,5.453-28.52,12.342-68.693,12.342-93.269,0-41.3-10.906-64.748-5.944-92.705s15.4-46.189,26.594-53.551c0,0,17.141,4.544,34.646,20.995s32.9,44.735,38.9,71.692,14,109.9,14,131.6,1.563,48.643,1.563,48.643H177.662A48.1,48.1,0,0,1,169.064,511.864Z" transform="translate(63.757 -92.754)" fill="none" stroke="#263238" stroke-linecap="round" stroke-linejoin="round" stroke-width="0.75"/>
        <path id="Trazado_49835" data-name="Trazado 49835" d="M204.192,243.16l-30.066,54.751-1.618,30.029s-8.38-21.413-4.653-35.392S204.192,243.16,204.192,243.16Z" transform="translate(12.015 -89.859)" fill="#263238" stroke="#263238" stroke-linecap="round" stroke-linejoin="round" stroke-width="0.75"/>
        <path id="Trazado_49836" data-name="Trazado 49836" d="M187.181,291.495l8.38,126.715-9.325,26.085-6.526-52.187,5.6-104.357Z" transform="translate(-2.639 -53.396)" fill="#263238" stroke="#263238" stroke-linecap="round" stroke-linejoin="round" stroke-width="0.75"/>
        <path id="Trazado_49837" data-name="Trazado 49837" d="M260.611,247.913s-1.054,13.651-2.109,20.3,15.4,25.267,15.4,25.267L250.1,329.53l-26.957-21s-38.173-2.8-41.645-5.962-3.508-37.791-3.508-37.791l-9.089-5.253s8.4-36.355,10.488-44.462l2.109-8.034s-12.252-4.217-9.452-16.36,20.65-18.177,38.5-15.414,22.395,9.452,22.395,9.452,25.212-.345,39.554,11.561,5.6,30.793,1.054,37.446A104.026,104.026,0,0,1,260.611,247.913Z" transform="translate(-67.816 -145.927)" fill="#fff"/>
        <g id="Grupo_44636" data-name="Grupo 44636" transform="translate(101.089 28.669)" clip-path="url(#clip-path-4)">
          <path id="Trazado_49838" data-name="Trazado 49838" d="M214.846,296.883c7-8.562,0-41.245-5.453-57.586s7.78-23.34,7.78-23.34L177.437,209.1l.545-2.054a17.7,17.7,0,0,1-6.962-4.926l-2.145-12.633c3.635-11.488,20.85-17.014,38.173-14.306,17.85,2.8,22.395,9.452,22.395,9.452S254.655,184.292,269,196.2s5.6,30.793,1.054,37.446a104.034,104.034,0,0,1-12.942,14.342s-1.054,13.651-2.109,20.3,15.342,25.267,15.342,25.267L246.548,329.6l-26.957-21s-29.084-2.145-38.827-4.781l-2.818-1.182S207.812,305.445,214.846,296.883Z" transform="translate(-165.349 -174.669)" fill="#c7e8e1"/>
          <path id="Trazado_49839" data-name="Trazado 49839" d="M214.846,296.883c7-8.562,0-41.245-5.453-57.586s7.78-23.34,7.78-23.34L177.437,209.1l.545-2.054a17.7,17.7,0,0,1-6.962-4.926l-2.145-12.633c3.635-11.488,20.85-17.014,38.173-14.306,17.85,2.8,22.395,9.452,22.395,9.452S254.655,184.292,269,196.2s5.6,30.793,1.054,37.446a104.034,104.034,0,0,1-12.942,14.342s-1.054,13.651-2.109,20.3,15.342,25.267,15.342,25.267L246.548,329.6l-26.957-21s-29.084-2.145-38.827-4.781l-2.818-1.182S207.812,305.445,214.846,296.883Z" transform="translate(-165.349 -174.669)" fill="#fff" opacity="0.5"/>
          <path id="Trazado_49840" data-name="Trazado 49840" d="M230.482,211.491v-1.4c0-2.708-.454-8.562-4.981-10.161-5.944-2.09-10.906,3.508-10.906,3.508l-.345,5.6a7.725,7.725,0,0,1,7.271-2.8A16.36,16.36,0,0,1,230.482,211.491Z" transform="translate(-201.435 -154.261)" fill="#263238"/>
          <path id="Trazado_49841" data-name="Trazado 49841" d="M217.84,214.6c0,2.89.8,5.253,1.818,5.253s1.818-2.363,1.818-5.253-.782-5.253-1.818-5.253S217.84,211.695,217.84,214.6Z" transform="translate(-198.954 -146.176)" fill="#263238"/>
          <path id="Trazado_49842" data-name="Trazado 49842" d="M212.122,235.313c1.945,2.018,4.544,2.672,5.8,1.472s.691-3.835-1.254-5.853-4.526-2.672-5.78-1.472S210.177,233.3,212.122,235.313Z" transform="translate(-182.202 -130.222)" fill="#263238"/>
        </g>
        <path id="Trazado_49844" data-name="Trazado 49844" d="M260.611,247.913s-1.054,13.651-2.109,20.3,15.4,25.267,15.4,25.267L250.1,329.53l-26.957-21s-38.173-2.8-41.645-5.962-3.508-37.791-3.508-37.791l-9.089-5.253s8.4-36.355,10.488-44.462l2.109-8.034s-12.252-4.217-9.452-16.36,20.65-18.177,38.5-15.414,22.395,9.452,22.395,9.452,25.212-.345,39.554,11.561,5.6,30.793,1.054,37.446A104.026,104.026,0,0,1,260.611,247.913Z" transform="translate(-67.816 -145.927)" fill="none" stroke="#263238" stroke-linecap="round" stroke-linejoin="round" stroke-width="0.75"/>
        <path id="Trazado_49845" data-name="Trazado 49845" d="M224.187,213.637c-6.308-4.2-45.444-6.635-45.444-6.635s-12.252-4.217-9.452-16.36,20.65-18.177,38.5-15.414,22.395,9.452,22.395,9.452,25.212-.345,39.554,11.561,5.6,30.793,1.054,37.446a104.028,104.028,0,0,1-12.942,14.342s-.582,7.489-1.309,14.087l-10.906,3.072L233.73,258.88l-11.906-2.8s8.762-6.653,3.854-12.942-14-8.4-14.342-13.306S230.495,217.836,224.187,213.637Z" transform="translate(-65.003 -145.952)" fill="#263238" stroke="#263238" stroke-linecap="round" stroke-linejoin="round" stroke-width="0.75"/>
        <path id="Trazado_49846" data-name="Trazado 49846" d="M181.855,187.716s4.108-7.525-3.417-6.162-7.525,14.378-1.363,17.105,39.681-3.417,58.168,2.054,31.465,20.522,31.465,20.522" transform="translate(-60.879 -140.372)" fill="none" stroke="#fff" stroke-linecap="round" stroke-miterlimit="10" stroke-width="1"/>
        <path id="Trazado_49847" data-name="Trazado 49847" d="M216.324,216.7s-14.378-12.306-25.994-14.36-17.8-2.054-4.8,5.453,4.108,6.144-4.108,3.417" transform="translate(-20.767 -124.199)" fill="none" stroke="#fff" stroke-linecap="round" stroke-miterlimit="10" stroke-width="1"/>
        <path id="Trazado_49848" data-name="Trazado 49848" d="M182.589,234.8s2.09-22.049,12.942-22.74,10.507,15.051,7.271,25.9S191.9,252.3,185.661,246.706" transform="translate(-17.097 -115.309)" fill="#c7e8e1"/>
        <g id="Grupo_44637" data-name="Grupo 44637" transform="translate(165.492 96.729)" clip-path="url(#clip-path-5)">
          <path id="Trazado_49849" data-name="Trazado 49849" d="M182.589,234.8s2.09-22.049,12.942-22.74,10.507,15.051,7.271,25.9S191.9,252.3,185.661,246.706" transform="translate(-182.589 -212.038)" fill="#fff" stroke="#263238" stroke-linecap="round" stroke-linejoin="round" stroke-width="0.75" opacity="0.5"/>
        </g>
        <path id="Trazado_49851" data-name="Trazado 49851" d="M182.589,234.8s2.09-22.049,12.942-22.74,10.507,15.051,7.271,25.9S191.9,252.3,185.661,246.706" transform="translate(-17.097 -115.309)" fill="none" stroke="#263238" stroke-linecap="round" stroke-linejoin="round" stroke-width="0.75"/>
        <path id="Trazado_49852" data-name="Trazado 49852" d="M197.81,232.65,162.8,285.855l16.105,20.65a406.777,406.777,0,0,1,24.14-40.608c11.906-16.8,13.306-19.6,13.306-19.6Z" transform="translate(7.309 -98.454)" fill="#fff"/>
        <g id="Grupo_44638" data-name="Grupo 44638" transform="translate(170.109 134.196)" clip-path="url(#clip-path-6)">
          <path id="Trazado_49853" data-name="Trazado 49853" d="M172.525,232.65,191.066,246.3s-1.036,2.054-8.671,13.015l-19.6-11.888Z" transform="translate(-137.515 -232.65)" fill="#c7e8e1"/>
          <path id="Trazado_49854" data-name="Trazado 49854" d="M172.525,232.65,191.066,246.3s-1.036,2.054-8.671,13.015l-19.6-11.888Z" transform="translate(-137.515 -232.65)" fill="#fff" opacity="0.5"/>
        </g>
        <path id="Trazado_49856" data-name="Trazado 49856" d="M197.81,232.65,162.8,285.855l16.105,20.65a406.777,406.777,0,0,1,24.14-40.608c11.906-16.8,13.306-19.6,13.306-19.6Z" transform="translate(7.309 -98.454)" fill="none" stroke="#263238" stroke-linecap="round" stroke-linejoin="round" stroke-width="0.75"/>
        <path id="Trazado_49857" data-name="Trazado 49857" d="M315.006,331.979s-5.6-11.561-6.653-18.9-1.4-11.561-5.6-15.051-17.85-17.5-20-22.758-3.49-.345-4.544,3.854-.691,8.053,2.8,10.507a38.592,38.592,0,0,1,6.653,6.289l-3.145,2.454s-43.753-16.451-48.316-18.177-8.743-.364-9.089,3.145,1.036,3.854,3.145,4.908,25.194,9.089,28.357,10.488l3.145,1.4-2.454,2.454s-12.6-.345-18.9-.691-15.742-1.4-17.141.691a4.363,4.363,0,0,0,1.054,5.944,6.762,6.762,0,0,0,5.6,1.818c3.145,0,30.1,2.09,30.1,2.09l-.709,3.854s-28.7,4.544-29.738,5.944-1.054,2.109,0,4.2,1.818,2.109,4.544,2.109,25.448-3.508,25.448-3.508-11.2,6.308-12.6,7.362-6.289,1.818-4.89,4.2,2.09,3.145,4.2,2.8,17.141-7,17.141-7,15.051,2.09,20,2.454a68.579,68.579,0,0,0,10.906-.364l14,9.089Z" transform="translate(-199.92 -65.469)" fill="#fff" stroke="#263238" stroke-linecap="round" stroke-linejoin="round" stroke-width="0.75"/>
        <path id="Trazado_49858" data-name="Trazado 49858" d="M244.145,324.652s10.161-42.353,14.36-51.806S286.5,254.669,298.06,275.3s1.054,44.1-3.163,60.895S264.1,428.9,260.251,438.407s-10.906,7.271-14.706,6.308S135.3,357.9,135.3,357.9l8.4-18.886,82.6,42.408Z" transform="translate(-29.665 -73.902)" fill="#fff"/>
        <g id="Grupo_44639" data-name="Grupo 44639" transform="translate(105.634 188.771)" clip-path="url(#clip-path-7)">
          <path id="Trazado_49859" data-name="Trazado 49859" d="M227.772,417.767a253.99,253.99,0,0,0-9.325-24.121c-3.89-7.78,18.668,17.9,23.34,3.89S276.015,313.5,270.58,290.161A44.262,44.262,0,0,0,252.8,263.368c8.671-2.054,19.286.127,25.9,11.943,11.543,20.65,1.054,44.1-3.163,60.895S244.75,428.91,240.9,438.417s-10.906,7.271-14.706,6.308c-2.8-.763-59.986-46.443-90.887-71.219Z" transform="translate(-115.944 -262.665)" fill="#c7e8e1"/>
          <path id="Trazado_49860" data-name="Trazado 49860" d="M227.772,417.767a253.99,253.99,0,0,0-9.325-24.121c-3.89-7.78,18.668,17.9,23.34,3.89S276.015,313.5,270.58,290.161A44.262,44.262,0,0,0,252.8,263.368c8.671-2.054,19.286.127,25.9,11.943,11.543,20.65,1.054,44.1-3.163,60.895S244.75,428.91,240.9,438.417s-10.906,7.271-14.706,6.308c-2.8-.763-59.986-46.443-90.887-71.219Z" transform="translate(-115.944 -262.665)" fill="#fff" opacity="0.5"/>
        </g>
        <path id="Trazado_49862" data-name="Trazado 49862" d="M244.145,324.652s10.161-42.353,14.36-51.806S286.5,254.669,298.06,275.3s1.054,44.1-3.163,60.895S264.1,428.9,260.251,438.407s-10.906,7.271-14.706,6.308S135.3,357.9,135.3,357.9l8.4-18.886,82.6,42.408Z" transform="translate(-29.665 -73.902)" fill="none" stroke="#263238" stroke-linecap="round" stroke-linejoin="round" stroke-width="0.75"/>
        <line id="Línea_883" data-name="Línea 883" x1="9.452" y2="19.25" transform="translate(116.831 272.108)" fill="#fff" stroke="#263238" stroke-linecap="round" stroke-linejoin="round" stroke-width="0.75"/>
        <path id="Trazado_49863" data-name="Trazado 49863" d="M106.665,255.39l48.352,33.537s-23.831,25.194-21.377,91.287c1.818,50.479-4.853,107.792-14.542,119.444H67.62s17.8-98.158,16.523-154.4C83.144,302.524,95.977,272.859,106.665,255.39Z" transform="translate(241.656 -79.858)" fill="#fff" stroke="#263238" stroke-linecap="round" stroke-linejoin="round" stroke-width="0.75"/>
        <path id="Trazado_49864" data-name="Trazado 49864" d="M109.865,255.39l48.352,33.537s-23.831,25.194-21.359,91.287c1.818,50.479-4.853,107.792-14.542,119.444H70.82S88.6,401.5,87.325,345.259C86.362,302.524,99.2,272.859,109.865,255.39Z" transform="translate(232.639 -79.858)" fill="#263238" stroke="#263238" stroke-linecap="round" stroke-linejoin="round" stroke-width="0.75"/>
        <path id="Trazado_49865" data-name="Trazado 49865" d="M73.447,255.39H67.63l48.352,33.537h5.8Z" transform="translate(274.874 -79.858)" fill="#fff" stroke="#263238" stroke-linecap="round" stroke-linejoin="round" stroke-width="0.75"/>
      </g>
    </g>
  </g>
</svg>
